<svg width="19" height="14" viewBox="0 0 19 14" fill="none" xmlns="http://www.w3.org/2000/svg">
<path d="M1.49564 2.84897C3.82025 0.765064 5.80422 1.3995 7.8593 2.52018C9.10245 3.22267 10.3878 3.80482 11.7037 4.2614C12.9337 4.67239 14.2241 4.72471 15.4732 4.41422C16.8021 4.02986 17.6444 3.08978 18.67 1.80702C18.8273 1.60789 19.0893 1.1448 18.8011 1.04292C18.6566 1.00691 18.5071 1.01738 18.3668 1.07333C18.2266 1.12927 18.1002 1.22883 18 1.36245C17.1153 2.46486 15.969 3.18854 14.7283 3.42784C13.3993 3.61541 12.0541 3.35458 10.8352 2.673C8.45073 1.49212 6.05503 -0.337093 3.42347 0.329758C2.18418 0.602765 1.07857 1.45924 0.338921 2.71931C0.192931 2.97864 0.462485 3.09904 0.608475 3.1083C0.916111 3.15386 1.22677 3.06189 1.4844 2.84897H1.49564Z" fill="#7ECCDE"/>
<path d="M1.49564 7.27789C3.82025 5.19399 5.80422 5.82842 7.8593 6.9491C9.10245 7.65159 10.3878 8.23375 11.7037 8.69032C12.9337 9.10132 14.2241 9.15363 15.4732 8.84314C16.8021 8.45878 17.6444 7.5187 18.67 6.23594C18.8273 6.03681 19.0893 5.57372 18.8011 5.47184C18.6566 5.43717 18.5074 5.44829 18.3673 5.50416C18.2272 5.56003 18.1009 5.65883 18 5.79137C17.1163 6.89537 15.9695 7.61934 14.7283 7.85676C13.3993 8.04434 12.0541 7.78351 10.8352 7.10192C8.45073 5.92567 6.05503 4.09646 3.42347 4.75868C2.18418 5.03169 1.07857 5.88816 0.338921 7.14823C0.192931 7.40756 0.462485 7.52797 0.608475 7.54186C0.916419 7.58323 1.22633 7.48983 1.4844 7.27789H1.49564Z" fill="#7ECCDE"/>
<path d="M1.49564 11.7028C3.82025 9.62348 5.80422 10.2533 7.8593 11.374C9.10179 12.0785 10.3872 12.6607 11.7037 13.1152C12.9337 13.5255 14.2236 13.5794 15.4732 13.2726C16.8021 12.8836 17.6444 11.9436 18.67 10.6608C18.8273 10.4663 19.0893 9.99858 18.8011 9.8967C18.6566 9.86203 18.5074 9.87315 18.3673 9.92901C18.2272 9.98488 18.1009 10.0837 18 10.2162C17.1163 11.3202 15.9695 12.0442 14.7283 12.2816C13.3993 12.4692 12.0541 12.2084 10.8352 11.5268C8.45073 10.3505 6.05503 8.52132 3.42347 9.18817C2.1839 9.45725 1.07761 10.3126 0.338921 11.5731C0.192931 11.8324 0.462485 11.9575 0.608475 11.9667C0.916419 12.0081 1.22633 11.9147 1.4844 11.7028H1.49564Z" fill="#7ECCDE"/>
</svg>
