<svg width="38" height="27" viewBox="0 0 38 27" fill="none" xmlns="http://www.w3.org/2000/svg">
    <path
        d="M2.5281 5.50713C7.1275 1.38396 11.0529 2.63924 15.1191 4.85658C17.5787 6.24652 20.1218 7.39835 22.7255 8.30171C25.1592 9.11489 27.7122 9.2184 30.1837 8.60408C32.813 7.84359 34.4795 5.98358 36.5089 3.44554C36.82 3.05155 37.3384 2.13529 36.7681 1.93372C36.4823 1.86247 36.1864 1.88319 35.9089 1.99388C35.6314 2.10458 35.3815 2.30155 35.1831 2.56594C33.4328 4.74712 31.1646 6.17898 28.7099 6.65245C26.0804 7.02359 23.4187 6.50751 21.0071 5.15895C16.2892 2.82249 11.5492 -0.796735 6.34244 0.522678C3.89041 1.06284 1.70289 2.75744 0.239441 5.25058C-0.0494107 5.76368 0.483922 6.0019 0.772774 6.02023C1.38145 6.11038 1.99611 5.9284 2.50586 5.50713H2.5281Z"
        fill="white" />
    <path
        d="M2.5281 14.2664C7.1275 10.1432 11.0529 11.3985 15.1191 13.6158C17.5787 15.0058 20.1218 16.1576 22.7255 17.061C25.1592 17.8741 27.7122 17.9776 30.1837 17.3633C32.813 16.6028 34.4795 14.7428 36.5089 12.2048C36.82 11.8108 37.3384 10.8945 36.7681 10.693C36.4822 10.6244 36.187 10.6464 35.9099 10.7569C35.6328 10.8674 35.3827 11.0629 35.1831 11.3252C33.4346 13.5095 31.1656 14.942 28.7099 15.4117C26.0804 15.7828 23.4187 15.2668 21.0071 13.9182C16.2892 11.5909 11.5492 7.97168 6.34244 9.28193C3.89041 9.82209 1.70289 11.5167 0.239441 14.0098C-0.0494107 14.5229 0.483922 14.7612 0.772774 14.7886C1.38206 14.8705 1.99525 14.6857 2.50586 14.2664H2.5281Z"
        fill="white" />
    <path
        d="M2.5281 23.0263C7.1275 18.9123 11.0529 20.1584 15.1191 22.3758C17.5774 23.7697 20.1208 24.9216 22.7255 25.8209C25.1592 26.6328 27.7114 26.7394 30.1837 26.1324C32.813 25.3628 34.4795 23.5028 36.5089 20.9647C36.82 20.5799 37.3384 19.6545 36.7681 19.4529C36.4822 19.3843 36.187 19.4063 35.9099 19.5168C35.6328 19.6274 35.3827 19.8229 35.1831 20.0851C33.4346 22.2695 31.1656 23.7019 28.7099 24.1716C26.0804 24.5428 23.4187 24.0267 21.0071 22.6781C16.2892 20.3508 11.5492 16.7316 6.34244 18.051C3.88987 18.5834 1.701 20.2758 0.239441 22.7698C-0.0494107 23.2829 0.483922 23.5303 0.772774 23.5486C1.38206 23.6304 1.99525 23.4456 2.50586 23.0263H2.5281Z"
        fill="white" />
</svg>