<svg width="30" height="30" viewBox="0 0 30 30" fill="none" xmlns="http://www.w3.org/2000/svg">
<g id="&#229;&#156;&#150;&#229;&#177;&#164;_1" clip-path="url(#clip0_407_16397)">
<path id="Vector" d="M15.0033 29.9948C12.0371 29.9948 9.13744 29.1152 6.67113 27.4673C4.20482 25.8194 2.28259 23.4771 1.14747 20.7367C0.012354 17.9962 -0.28464 14.9808 0.294038 12.0716C0.872716 9.16235 2.3011 6.49007 4.39852 4.39264C6.49595 2.29522 9.16818 0.866855 12.0774 0.288177C14.9866 -0.290501 18.0021 0.00650058 20.7425 1.14162C23.4829 2.27674 25.8252 4.19899 27.4731 6.6653C29.1211 9.13161 30.0006 12.0312 30.0006 14.9974C29.9951 18.9733 28.4133 22.7847 25.6019 25.5961C22.7906 28.4075 18.9791 29.9893 15.0033 29.9948ZM15.0033 1.56116C12.3458 1.56116 9.74805 2.34918 7.53847 3.82557C5.32889 5.30197 3.60672 7.40042 2.58976 9.85557C1.57281 12.3107 1.30676 15.0123 1.8252 17.6187C2.34364 20.2251 3.62333 22.6192 5.50243 24.4983C7.38152 26.3774 9.77561 27.657 12.382 28.1755C14.9884 28.6939 17.6899 28.4278 20.1451 27.4109C22.6002 26.3939 24.6987 24.6718 26.1751 22.4622C27.6515 20.2526 28.4395 17.6548 28.4395 14.9974C28.4354 11.4352 27.0185 8.02 24.4996 5.50111C21.9807 2.98222 18.5655 1.56529 15.0033 1.56116Z" fill="white"/>
<path id="Vector_2" d="M12.0578 22.4698C11.8431 22.4713 11.6331 22.4063 11.4567 22.2838C11.2804 22.1613 11.1462 21.9872 11.0727 21.7854C10.9992 21.5836 10.9898 21.364 11.046 21.1568C11.1022 20.9495 11.2212 20.7647 11.3866 20.6277L18.0942 14.9971L11.3866 9.36661C11.1747 9.18857 11.0422 8.93366 11.0183 8.65797C10.9944 8.38227 11.081 8.10837 11.2591 7.89652C11.4371 7.68467 11.692 7.55223 11.9677 7.52832C12.2434 7.50441 12.5173 7.59099 12.7291 7.76903L20.3839 14.2009C20.5 14.2986 20.5933 14.4205 20.6572 14.5581C20.7212 14.6956 20.7544 14.8454 20.7544 14.9971C20.7544 15.1488 20.7212 15.2987 20.6572 15.4362C20.5933 15.5737 20.5 15.6956 20.3839 15.7933L12.7291 22.2252C12.5412 22.3834 12.3034 22.4701 12.0578 22.4698Z" fill="white"/>
<path id="Vector_3" opacity="0.2" d="M15.0027 1.56152C12.3452 1.56152 9.74745 2.34955 7.53787 3.82594C5.32829 5.30234 3.60612 7.40078 2.58916 9.85594C1.5722 12.3111 1.30615 15.0127 1.8246 17.6191C2.34304 20.2254 3.62273 22.6195 5.50182 24.4986C7.38092 26.3777 9.775 27.6574 12.3814 28.1758C14.9878 28.6943 17.6893 28.4282 20.1445 27.4112C22.5996 26.3943 24.6981 24.6721 26.1745 22.4626C27.6509 20.253 28.4389 17.6552 28.4389 14.9978C28.4348 11.4355 27.0179 8.02037 24.499 5.50147C21.9801 2.98258 18.5649 1.56566 15.0027 1.56152ZM20.3834 15.82L12.7286 22.2519C12.5407 22.4101 12.3029 22.4967 12.0573 22.4965C11.8425 22.498 11.6326 22.433 11.4562 22.3105C11.2799 22.1879 11.1457 22.0138 11.0722 21.8121C10.9986 21.6103 10.9893 21.3907 11.0455 21.1834C11.1017 20.9762 11.2207 20.7913 11.386 20.6543L18.0937 15.0238L11.386 9.39326C11.1742 9.21522 11.0417 8.96032 11.0178 8.68463C10.9939 8.40893 11.0805 8.13503 11.2585 7.92318C11.4366 7.71133 11.6915 7.57888 11.9671 7.55497C12.2428 7.53106 12.5167 7.61765 12.7286 7.79569L20.3834 14.2276C20.4994 14.3253 20.5927 14.4472 20.6567 14.5847C20.7207 14.7222 20.7539 14.8721 20.7539 15.0238C20.7539 15.1755 20.7207 15.3253 20.6567 15.4629C20.5927 15.6004 20.4994 15.7223 20.3834 15.82Z" fill="#2F3941"/>
</g>
<defs>
<clipPath id="clip0_407_16397">
<rect width="30" height="30" fill="white"/>
</clipPath>
</defs>
</svg>
