<svg width="30" height="30" viewBox="0 0 30 30" fill="none" xmlns="http://www.w3.org/2000/svg">
<g id="&#229;&#156;&#150;&#229;&#177;&#164;_1" clip-path="url(#clip0_407_16407)">
<path id="Vector" d="M14.9967 0.00520456C17.9629 0.0052043 20.8626 0.884774 23.3289 2.53271C25.7952 4.18065 27.7174 6.52292 28.8525 9.26333C29.9876 12.0038 30.2846 15.0192 29.706 17.9284C29.1273 20.8376 27.6989 23.5099 25.6015 25.6074C23.5041 27.7048 20.8318 29.1331 17.9226 29.7118C15.0134 30.2905 11.9979 29.9935 9.25748 28.8584C6.51706 27.7233 4.17482 25.801 2.52688 23.3347C0.878947 20.8684 -0.000640014 17.9688 -0.000640273 15.0026C0.0048659 11.0267 1.58672 7.21528 4.39808 4.40391C7.20945 1.59255 11.0209 0.0107114 14.9967 0.00520456ZM14.9967 28.4388C17.6542 28.4388 20.2519 27.6508 22.4615 26.1744C24.6711 24.698 26.3933 22.5996 27.4102 20.1444C28.4272 17.6893 28.6932 14.9877 28.1748 12.3813C27.6564 9.77493 26.3767 7.38083 24.4976 5.50173C22.6185 3.62264 20.2244 2.34296 17.618 1.82452C15.0116 1.30608 12.3101 1.57216 9.85491 2.58912C7.39976 3.60608 5.30131 5.32823 3.82491 7.53781C2.34852 9.74739 1.56051 12.3452 1.56051 15.0026C1.56464 18.5648 2.98151 21.98 5.5004 24.4989C8.01929 27.0178 11.4345 28.4347 14.9967 28.4388Z" fill="white"/>
<path id="Vector_2" d="M17.9422 7.53019C18.1569 7.52869 18.3669 7.59365 18.5433 7.71618C18.7196 7.83871 18.8538 8.01281 18.9273 8.21459C19.0008 8.41636 19.0102 8.63595 18.954 8.84323C18.8978 9.0505 18.7788 9.23532 18.6134 9.37234L11.9058 15.0029L18.6134 20.6334C18.8253 20.8114 18.9578 21.0663 18.9817 21.342C19.0056 21.6177 18.919 21.8916 18.7409 22.1035C18.5629 22.3153 18.308 22.4478 18.0323 22.4717C17.7566 22.4956 17.4827 22.409 17.2709 22.231L9.61609 15.7991C9.50005 15.7014 9.40675 15.5795 9.34275 15.4419C9.27876 15.3044 9.24562 15.1546 9.24562 15.0029C9.24562 14.8512 9.27876 14.7013 9.34275 14.5638C9.40675 14.4263 9.50005 14.3044 9.61609 14.2067L17.2709 7.77477C17.4588 7.61658 17.6966 7.52995 17.9422 7.53019Z" fill="white"/>
<path id="Vector_3" opacity="0.2" d="M14.9973 28.4385C17.6548 28.4385 20.2526 27.6505 22.4621 26.1741C24.6717 24.6977 26.3939 22.5992 27.4108 20.1441C28.4278 17.6889 28.6938 14.9873 28.1754 12.3809C27.657 9.77456 26.3773 7.38046 24.4982 5.50137C22.6191 3.62227 20.225 2.3426 17.6186 1.82415C15.0122 1.30571 12.3107 1.57179 9.85552 2.58875C7.40036 3.60571 5.30191 5.32786 3.82552 7.53744C2.34912 9.74702 1.56111 12.3448 1.56111 15.0022C1.56524 18.5645 2.98211 21.9796 5.50101 24.4985C8.0199 27.0174 11.4351 28.4343 14.9973 28.4385ZM9.61661 14.18L17.2714 7.74812C17.4593 7.58993 17.6971 7.5033 17.9427 7.50354C18.1575 7.50204 18.3674 7.567 18.5438 7.68953C18.7201 7.81206 18.8543 7.98616 18.9278 8.18794C19.0014 8.38971 19.0107 8.60928 18.9545 8.81656C18.8983 9.02384 18.7793 9.20866 18.614 9.34568L11.9063 14.9762L18.614 20.6067C18.8258 20.7848 18.9583 21.0397 18.9822 21.3154C19.0061 21.5911 18.9195 21.865 18.7415 22.0768C18.5634 22.2887 18.3085 22.4211 18.0329 22.445C17.7572 22.4689 17.4833 22.3823 17.2714 22.2043L9.61661 15.7724C9.50056 15.6747 9.40726 15.5528 9.34327 15.4153C9.27927 15.2778 9.24614 15.1279 9.24614 14.9762C9.24614 14.8245 9.27927 14.6747 9.34327 14.5371C9.40726 14.3996 9.50056 14.2777 9.61661 14.18Z" fill="#2F3941"/>
</g>
<defs>
<clipPath id="clip0_407_16407">
<rect width="30" height="30" fill="white" transform="translate(30 30) rotate(180)"/>
</clipPath>
</defs>
</svg>
