<svg width="31" height="30" viewBox="0 0 31 30" fill="none" xmlns="http://www.w3.org/2000/svg">
<path d="M30.5 15.0204C30.5016 12.0558 29.6232 9.15721 27.976 6.69142C26.3288 4.22562 23.9866 2.30332 21.2459 1.16769C18.5051 0.0320471 15.4889 -0.265916 12.5786 0.311468C9.66838 0.888851 6.99489 2.31564 4.89628 4.41139C2.79768 6.50714 1.36826 9.17767 0.788819 12.0852C0.209378 14.9928 0.505977 18.0068 1.64105 20.7459C2.77613 23.485 4.6987 25.8263 7.16561 27.4735C9.63253 29.1207 12.5329 30 15.5 30C19.4768 30 23.2909 28.422 26.1037 25.6131C28.9165 22.8041 30.4978 18.994 30.5 15.0204Z" fill="white"/>
<path d="M15.4999 0.0326671C11.7614 0.083159 8.17653 1.52682 5.44788 4.0808C2.71923 6.63478 1.04352 10.1149 0.749187 13.8391C0.45485 17.5633 1.56307 21.2631 3.8567 24.2134C6.15032 27.1636 9.46399 29.1517 13.1482 29.7878V19.3527H9.34313V15.0204H13.1564V11.7569C13.1564 8.00383 15.3937 5.92331 18.8233 5.92331C19.9476 5.93941 21.0692 6.03757 22.1793 6.21701V9.90481H20.2849C19.9618 9.86336 19.6335 9.89478 19.3242 9.99674C19.0148 10.0987 18.7323 10.2686 18.4973 10.494C18.2623 10.7194 18.0809 10.9945 17.9663 11.2992C17.8518 11.6039 17.8069 11.9303 17.8352 12.2546V15.0612H21.9915L21.3301 19.3935H17.8107V29.7878C21.5324 29.1939 24.8938 27.222 27.2265 24.2642C29.5592 21.3065 30.6921 17.5797 30.3998 13.8253C30.1075 10.0709 28.4115 6.56406 25.6491 4.00232C22.8868 1.44058 19.2605 0.0117361 15.4917 0L15.4999 0.0326671Z" fill="#68737D"/>
</svg>
