<svg width="31" height="30" viewBox="0 0 31 30" fill="none" xmlns="http://www.w3.org/2000/svg">
<path d="M15.4911 1.21019e-05C12.0211 0.00206984 8.65923 1.20706 5.97806 3.40979C3.2969 5.61252 1.46234 8.6767 0.786924 12.0803C0.11151 15.4839 0.636991 19.0164 2.27389 22.0761C3.9108 25.1357 6.55787 27.5331 9.76411 28.86C12.9704 30.1869 16.5375 30.3611 19.8578 29.353C23.1781 28.3449 26.0462 26.2169 27.9735 23.3314C29.9008 20.4459 30.7681 16.9814 30.4276 13.5282C30.0871 10.075 28.56 6.84656 26.1062 4.393C24.7131 2.99809 23.0583 1.89198 21.2367 1.13812C19.415 0.384252 17.4625 -0.00249399 15.4911 1.21019e-05Z" fill="#68737D"/>
<path d="M9.88904 8.20846C11.8528 6.72692 14.3551 6 17.1411 6C18.7467 6.02884 20.3451 6.23766 21.9103 6.62308C22.1542 6.70497 22.4096 6.74012 22.6648 6.72692C22.6906 7.32577 22.8261 8.96308 23.0421 10.5346C22.942 10.6248 22.8177 10.6784 22.6872 10.6878C22.5568 10.6971 22.427 10.6617 22.3166 10.5865C21.9103 8.81769 20.7043 6.77885 16.8025 6.77885C12.6847 6.80654 9.1893 9.32654 9.1893 14.7058C9.1893 20.1646 12.7654 23.1796 17.1766 23.1796C20.6462 23.1796 22.1811 20.9954 22.8003 19.4619C22.9125 19.3991 23.0402 19.3753 23.1656 19.3939C23.291 19.4125 23.4079 19.4726 23.5 19.5658C23.3097 20.9158 22.61 22.6327 22.2102 23.1277C21.8902 23.1864 21.5753 23.2732 21.2686 23.3873C19.8796 23.7781 18.4512 23.9839 17.0154 24C14.5969 24 12.2817 23.5327 10.3179 22.2692C8.16711 20.8119 6.5 18.4615 6.5 15.0969C6.50015 13.7394 6.80891 12.4024 7.3995 11.202C7.99009 10.0015 8.84466 8.97398 9.88904 8.20846Z" fill="white"/>
</svg>
