<svg width="31" height="30" viewBox="0 0 31 30" fill="none" xmlns="http://www.w3.org/2000/svg">
<path d="M30.4829 15.0041C30.4846 12.0375 29.6065 9.13707 27.9598 6.66975C26.3132 4.20243 23.9719 2.27907 21.2322 1.14305C18.4925 0.00702966 15.4776 -0.290603 12.5688 0.287758C9.65997 0.866119 6.98799 2.2945 4.89091 4.39221C2.79382 6.48992 1.36586 9.1627 0.787672 12.0724C0.209483 14.9821 0.507028 17.9979 1.64271 20.7384C2.77839 23.4789 4.70113 25.8209 7.16771 27.468C9.6343 29.1152 12.5339 29.9935 15.4996 29.9919C19.4734 29.9919 23.2845 28.4128 26.0944 25.6021C28.9043 22.7913 30.4829 18.9791 30.4829 15.0041Z" fill="white"/>
<path d="M15.4997 18.1469C16.1231 18.1469 16.7325 17.9619 17.2507 17.6153C17.7689 17.2687 18.1726 16.7761 18.4108 16.1999C18.649 15.6236 18.7109 14.9896 18.5887 14.3781C18.4664 13.7667 18.1656 13.2053 17.7243 12.7649C17.2829 12.3246 16.7209 12.0251 16.1093 11.9044C15.4977 11.7838 14.864 11.8473 14.2886 12.0871C13.7131 12.3268 13.2217 12.732 12.8766 13.2512C12.5314 13.7705 12.348 14.3805 12.3496 15.0041C12.3518 15.8384 12.6846 16.6377 13.2751 17.2269C13.8657 17.8161 14.6657 18.1469 15.4997 18.1469Z" fill="#68737D"/>
<path d="M22.8525 9.42851C22.6982 9.02086 22.459 8.65073 22.1507 8.34278C21.8376 8.027 21.4586 7.78446 21.0408 7.63258C20.4751 7.42878 19.8792 7.32116 19.278 7.3142C18.2906 7.26522 17.9886 7.25705 15.4669 7.25705C12.9452 7.25705 12.6514 7.25706 11.6558 7.3142C11.0546 7.32116 10.4587 7.42878 9.89305 7.63258C9.493 7.78745 9.13113 8.02691 8.83215 8.33461C8.52704 8.63574 8.28803 8.9972 8.13033 9.39587C7.92659 9.96174 7.819 10.5577 7.81205 11.1591C7.76308 12.155 7.75491 12.4571 7.75491 14.9714C7.75491 17.4856 7.75492 17.7959 7.81205 18.7836C7.819 19.385 7.92659 19.981 8.13033 20.5469C8.28243 20.9576 8.52511 21.3287 8.84032 21.6326C9.14318 21.9472 9.51466 22.1875 9.92573 22.3346C10.4862 22.5482 11.0805 22.6588 11.6803 22.6612C12.6759 22.702 12.9778 22.7183 15.4995 22.7183C18.0212 22.7183 18.3151 22.7183 19.3107 22.6612C19.9131 22.6587 20.5101 22.5481 21.0734 22.3346C21.4775 22.1783 21.8444 21.9391 22.1507 21.6326C22.459 21.3247 22.6982 20.9545 22.8525 20.5469C23.0627 19.9825 23.1732 19.3859 23.1789 18.7836C23.1789 17.7959 23.2361 17.4938 23.2361 14.9714C23.2361 12.4489 23.2361 12.155 23.1789 11.1591C23.1691 10.5679 23.0587 9.98266 22.8525 9.42851ZM15.5077 19.8449C14.5484 19.8496 13.61 19.5651 12.8146 19.0285C12.2147 18.6322 11.7103 18.1073 11.3382 17.4919C10.966 16.8766 10.7354 16.1861 10.663 15.4705C10.5906 14.755 10.6782 14.0323 10.9195 13.3548C11.1608 12.6773 11.5497 12.062 12.0581 11.5534C12.5665 11.0449 13.1817 10.6558 13.859 10.4144C14.5363 10.1731 15.2588 10.0854 15.9741 10.1578C16.6895 10.2303 17.3797 10.461 17.9949 10.8332C18.6101 11.2055 19.1348 11.71 19.531 12.3101C20.0161 13.0396 20.2947 13.887 20.3369 14.7621C20.3791 15.6373 20.1835 16.5075 19.7708 17.2804C19.3581 18.0532 18.7438 18.6998 17.9932 19.1513C17.2425 19.6029 16.3836 19.8425 15.5077 19.8449ZM20.5429 11.0938C20.3184 11.0941 20.0992 11.0257 19.9146 10.8979C19.7254 10.7744 19.5798 10.5944 19.4984 10.3836C19.4118 10.1773 19.3891 9.94987 19.4331 9.73055C19.4793 9.51002 19.5901 9.30824 19.7514 9.15094C19.9138 8.99536 20.1179 8.89042 20.3389 8.8489C20.5596 8.80896 20.7872 8.83489 20.9933 8.92344C21.1993 9.01199 21.3748 9.15923 21.4978 9.34685C21.6182 9.53714 21.6806 9.75842 21.6773 9.9836C21.6778 10.1357 21.6477 10.2864 21.5888 10.4266C21.53 10.5668 21.4435 10.6938 21.3346 10.7999C21.1172 10.9996 20.8297 11.1053 20.5348 11.0938H20.5429Z" fill="#68737D"/>
<path d="M15.4996 0.00821741C12.0316 0.0102746 8.67156 1.21494 5.99191 3.41707C3.31227 5.6192 1.47875 8.68254 0.803719 12.0852C0.128689 15.4879 0.653921 19.0195 2.2899 22.0783C3.92587 25.137 6.57139 27.5338 9.77581 28.8603C12.9802 30.1869 16.5453 30.3611 19.8637 29.3533C23.1822 28.3454 26.0487 26.218 27.9749 23.3332C29.9011 20.4485 30.7679 16.985 30.4276 13.5327C30.0873 10.0804 28.561 6.8529 26.1087 4.40001C24.7161 3.00584 23.0621 1.9003 21.2416 1.14666C19.4211 0.393026 17.4698 0.00615814 15.4996 0.00821741ZM24.8845 18.8898C24.8692 19.674 24.7202 20.4497 24.4439 21.1837C24.1958 21.7955 23.8266 22.3509 23.3585 22.8164C22.8959 23.288 22.34 23.6578 21.7263 23.9021C20.9925 24.1785 20.217 24.3276 19.4331 24.3429C18.4293 24.3919 18.1029 24.4 15.5404 24.4C12.9779 24.4 12.6596 24.4001 11.6558 24.3429C10.8666 24.3276 10.0857 24.1785 9.3463 23.9021C8.71638 23.6661 8.14548 23.2956 7.67334 22.8164C7.20181 22.3537 6.8321 21.7976 6.58793 21.1837C6.31159 20.4497 6.16257 19.674 6.14727 18.8898C6.14727 17.8857 6.09014 17.5674 6.09014 15.0041C6.09014 12.4409 6.09014 12.1143 6.14727 11.1103C6.16537 10.323 6.31714 9.54456 6.5961 8.8082C6.84027 8.1943 7.20998 7.6382 7.68151 7.17555C8.15881 6.70268 8.72826 6.33309 9.35447 6.08982C10.0893 5.81728 10.8642 5.66835 11.6477 5.64902C12.6515 5.64902 12.9697 5.59187 15.5404 5.59187C18.1111 5.59187 18.4211 5.59188 19.4249 5.64902C20.2088 5.66433 20.9844 5.81339 21.7181 6.08982C22.3318 6.33405 22.8878 6.70387 23.3503 7.17555C23.8245 7.63599 24.1946 8.19269 24.4357 8.8082C24.712 9.54216 24.8611 10.3179 24.8764 11.1021C24.9254 12.1062 24.9335 12.4327 24.9335 14.996C24.9335 17.5592 24.9335 17.8857 24.8764 18.8898H24.8845Z" fill="#68737D"/>
</svg>
