<svg width="1210" height="249" viewBox="0 0 1210 249" fill="none" xmlns="http://www.w3.org/2000/svg">
    <g clip-path="url(#clip0_5814_7966)">
        <path
            d="M393.906 104.29C384.546 105.85 375.066 106.74 365.556 106.81C351.316 106.92 330.846 106.59 315.886 104.33C290.596 100.52 246.056 106.87 165.306 147.17C165.306 147.17 117.176 173.65 84.9561 180.64C52.7361 187.63 71.0861 192.98 71.0861 192.98C71.0861 192.98 88.2761 199.28 238.996 189.49C238.996 189.49 292.236 187.98 325.826 187.23C359.406 186.48 429.706 183.29 475.726 184.22C551.116 185.75 612.696 191.7 612.696 191.7C612.696 191.7 706.896 196.22 751.126 193.96C795.356 191.7 909.036 190.24 929.516 191C949.996 191.75 1094.98 193.26 1123.65 183.47C1152.32 173.68 1140.85 157.05 1100.71 149.18C1060.57 141.31 927.056 113.77 897.566 106.46C868.076 99.1497 759.326 84.7497 650.646 96.4897C567.066 105.52 509.526 99.0297 498.296 98.0897C479.066 96.4897 453.396 100.09 447.286 100.03C435.126 99.9197 416.216 100.58 393.916 104.29H393.906Z"
            fill="#8BA18C" />
        <path
            d="M195.393 189.96C195.393 189.96 195.303 189.96 195.253 189.93C194.983 189.81 168.193 177.76 138.363 179.31C115.013 180.53 96.1333 179.32 95.9433 179.31C95.7633 179.3 95.6233 179.14 95.6333 178.96C95.6433 178.78 95.8033 178.65 95.9833 178.65C96.1733 178.66 115.013 179.86 138.323 178.65C168.323 177.08 195.253 189.21 195.523 189.33C195.693 189.41 195.763 189.6 195.683 189.77C195.623 189.89 195.513 189.96 195.383 189.96H195.393Z"
            fill="#A8B7A8" />
        <path
            d="M269.966 187.481C269.916 187.481 269.856 187.471 269.816 187.441C269.606 187.331 248.616 176.271 208.816 171.871C168.906 167.461 145.816 159.681 145.586 159.611C145.416 159.551 145.326 159.361 145.386 159.191C145.446 159.021 145.626 158.931 145.806 158.981C146.036 159.061 169.056 166.811 208.896 171.211C248.836 175.621 269.926 186.741 270.136 186.851C270.296 186.941 270.356 187.141 270.266 187.301C270.206 187.411 270.096 187.471 269.976 187.471L269.966 187.481Z"
            fill="#A8B7A8" />
        <path
            d="M403.633 184.561C291.243 183.931 181.483 144.541 180.383 144.141C180.213 144.081 180.123 143.891 180.183 143.721C180.243 143.551 180.433 143.461 180.603 143.521C181.693 143.921 291.353 183.271 403.633 183.901C403.813 183.901 403.963 184.051 403.963 184.231C403.963 184.411 403.813 184.561 403.633 184.561Z"
            fill="#A8B7A8" />
        <path
            d="M678.666 174.411C673.376 174.411 668.606 174.341 664.446 174.241C653.066 173.961 637.736 171.571 618.326 168.561C602.296 166.071 584.136 163.251 564.006 160.981C521.976 156.251 468.526 156.581 441.126 159.641C422.396 161.721 408.096 160.211 386.456 157.921C378.616 157.091 369.736 156.151 359.376 155.251C321.066 151.921 236.116 127.871 235.266 127.631C235.096 127.581 234.986 127.401 235.036 127.221C235.086 127.051 235.276 126.941 235.446 126.991C236.296 127.231 321.196 151.271 359.436 154.591C369.806 155.491 378.686 156.431 386.526 157.261C408.126 159.551 422.396 161.061 441.056 158.981C468.496 155.921 522.016 155.591 564.086 160.321C584.226 162.591 602.396 165.411 618.426 167.901C637.806 170.911 653.126 173.291 664.466 173.571C692.256 174.261 747.036 173.461 801.556 160.331C801.876 160.241 834.876 151.371 895.766 152.761C956.536 154.151 1022 136.901 1022.65 136.731C1022.83 136.681 1023.01 136.791 1023.05 136.961C1023.1 137.141 1022.99 137.321 1022.82 137.361C1022.16 137.531 956.646 154.791 895.746 153.411C834.956 152.011 802.036 160.871 801.716 160.961C755.286 172.141 708.696 174.401 678.676 174.401L678.666 174.411Z"
            fill="#A8B7A8" />
        <path
            d="M675.72 186.22C655.6 186.22 633.63 185.86 618.38 184.58C592.07 182.38 565.97 179.19 565.71 179.16C521.24 170.55 480.29 171.1 444.17 171.58C436.04 171.69 428.36 171.79 420.83 171.79C379.12 171.79 319.08 165.45 296.16 156.02C273.8 146.82 206.82 133.15 206.14 133.01C205.96 132.97 205.85 132.8 205.88 132.62C205.92 132.44 206.09 132.33 206.27 132.36C206.94 132.5 273.99 146.18 296.41 155.4C319.25 164.8 379.19 171.12 420.83 171.12C428.36 171.12 436.04 171.02 444.16 170.91C480.32 170.43 521.3 169.88 565.81 178.5C566.05 178.53 592.14 181.71 618.43 183.91C653.8 186.87 725.32 184.92 726.03 184.9C726.62 184.88 785.88 182.58 828.55 173.75C871.49 164.86 897.72 161.93 936.51 161.69C975.3 161.45 1040.43 147.6 1049.54 143.51C1049.71 143.44 1049.9 143.51 1049.97 143.68C1050.04 143.85 1049.97 144.04 1049.8 144.11C1040.67 148.21 975.38 162.11 936.51 162.35C897.77 162.59 871.57 165.51 828.68 174.39C785.96 183.24 726.64 185.53 726.05 185.56C725.64 185.57 702.29 186.21 675.71 186.21L675.72 186.22Z"
            fill="#A8B7A8" />
        <path
            d="M864.223 187.77C864.083 187.77 863.943 187.68 863.903 187.53C863.853 187.36 863.954 187.17 864.134 187.12C864.494 187.02 900.083 177.11 931.473 173.75C937.693 173.09 946.113 172.4 955.863 171.61C994.983 168.44 1060.45 163.13 1100.59 148.86C1100.76 148.8 1100.95 148.89 1101.01 149.06C1101.07 149.23 1100.98 149.42 1100.81 149.48C1060.59 163.78 995.063 169.1 955.913 172.27C946.163 173.06 937.753 173.74 931.533 174.41C900.203 177.76 864.653 187.65 864.303 187.75C864.273 187.75 864.243 187.76 864.213 187.76L864.223 187.77Z"
            fill="#A8B7A8" />
        <path
            d="M957.407 189.9C957.277 189.9 957.147 189.82 957.097 189.68C957.037 189.51 957.127 189.32 957.297 189.26C957.577 189.16 985.627 179.47 1055.03 178.45C1055.33 178.45 1085.64 177.86 1105.22 171.27C1129.02 163.26 1133.56 164.54 1133.74 164.6C1133.91 164.66 1134.01 164.84 1133.95 165.01C1133.89 165.18 1133.71 165.28 1133.54 165.22C1133.5 165.21 1128.81 164.02 1105.43 171.89C1085.75 178.52 1055.34 179.1 1055.04 179.11C985.737 180.12 957.787 189.78 957.517 189.88C957.477 189.89 957.447 189.9 957.407 189.9Z"
            fill="#A8B7A8" />
        <path
            d="M684.955 161.611C666.075 161.611 649.605 159.331 629.925 156.601C617.645 154.901 603.735 152.971 587.305 151.371C579.605 150.621 572.865 149.951 566.845 149.341C518.505 144.511 516.615 144.321 438.585 146.841C351.835 149.631 276.195 123.491 275.445 123.221C275.275 123.161 275.185 122.971 275.245 122.801C275.305 122.631 275.495 122.541 275.665 122.601C276.415 122.861 351.955 148.951 438.565 146.181C516.635 143.661 518.525 143.851 566.905 148.691C572.925 149.291 579.665 149.971 587.365 150.721C603.805 152.321 617.725 154.251 630.005 155.951C670.825 161.611 697.795 165.341 761.285 150.721C843.405 131.811 953.975 136.671 955.085 136.721C955.265 136.721 955.405 136.881 955.395 137.061C955.395 137.241 955.265 137.401 955.055 137.371C953.955 137.321 843.465 132.471 761.435 151.361C728.445 158.951 705.295 161.601 684.955 161.601V161.611Z"
            fill="#A8B7A8" />
        <path
            d="M713.055 81.1995C713.055 81.1995 707.755 80.6595 707.075 89.6695C707.055 89.9995 706.945 90.3195 706.755 90.5895C706.575 90.8595 706.315 91.0896 706.025 91.2296C704.075 92.1896 700.045 94.9896 702.025 101.69C702.085 101.89 702.115 102.11 702.115 102.32C702.045 103.72 702.205 109.93 710.185 111.09C710.185 111.09 722.235 113.86 724.725 104.83C724.805 104.51 724.965 104.22 725.185 103.98C726.425 102.77 727.165 101.16 727.285 99.4296C727.405 97.7096 726.885 95.9995 725.825 94.6395C725.585 94.2995 725.455 93.8995 725.445 93.4895C725.445 91.7695 725.085 87.0595 720.675 86.2095C720.375 86.1495 720.085 86.0295 719.835 85.8395C719.585 85.6495 719.385 85.4095 719.245 85.1295C718.695 83.9495 717.825 82.9496 716.725 82.2596C715.625 81.5596 714.355 81.1995 713.055 81.1995Z"
            fill="#DBCF7B" />
        <path
            d="M459.211 76.0404C459.211 76.0404 454.101 75.3504 451.931 87.3204C451.891 87.5704 451.791 87.8104 451.641 88.0104C451.491 88.2104 451.291 88.3804 451.071 88.5004C449.271 89.4304 444.801 92.3504 445.981 98.1204C446.081 98.5504 446.001 99.0004 445.771 99.3704C444.701 101 442.321 105.85 449.531 107.97C449.721 108.03 449.891 108.12 450.061 108.23C452.261 109.81 454.881 110.71 457.591 110.82C460.301 110.93 462.981 110.25 465.301 108.86C465.581 108.7 465.901 108.62 466.231 108.63C467.811 108.76 472.851 108.73 472.351 103.62C472.331 103.39 472.361 103.16 472.441 102.94C472.521 102.72 472.651 102.53 472.811 102.36C474.141 101.01 477.011 97.2504 472.461 93.5904C472.281 93.4404 472.131 93.2404 472.031 93.0304C471.931 92.8104 471.881 92.5804 471.871 92.3404C471.921 91.0904 471.561 89.8704 470.861 88.8404C470.151 87.8104 469.131 87.0404 467.951 86.6404C467.621 86.5504 467.331 86.3704 467.101 86.1204C466.881 85.8704 466.731 85.5504 466.691 85.2104C466.461 82.4204 465.211 75.7204 459.221 76.0404H459.211Z"
            fill="#DBCF7B" />
        <g opacity="0.4">
            <path
                d="M748.592 111.18C746.602 105.87 743.212 101.15 740.232 96.3201C733.022 84.6301 724.802 73.5901 715.682 63.3201C709.192 56.0001 702.172 49.1701 694.682 42.8701C693.942 42.2401 691.992 43.0201 691.322 43.3701L684.582 46.9101C684.512 40.4501 683.532 34.0401 681.652 27.8601C680.282 23.5001 678.192 19.0901 674.702 15.9501C674.272 15.4101 673.742 14.9501 673.142 14.6101C672.532 14.2701 671.872 14.0601 671.182 13.9901C670.402 13.7701 669.612 13.5901 668.802 13.3901L648.412 8.28008L624.502 2.29008L617.062 0.42008C616.252 0.22008 615.222 -0.22992 614.432 0.0900804C612.502 0.91008 610.672 1.92008 608.752 2.82008L598.372 7.83008C590.222 11.8101 582.082 15.8301 574.062 20.0101C571.252 21.4601 568.462 22.9201 565.742 24.5201C565.042 24.8301 564.402 25.2501 563.852 25.7701C563.602 26.2301 563.412 26.7101 563.292 27.2101C560.542 34.1801 557.832 41.1601 555.142 48.1601L553.082 53.5001C547.162 50.1601 540.672 47.9301 533.952 46.9501C530.522 46.4701 526.612 45.9301 523.542 47.8101L519.472 50.3201C504.152 60.1301 489.382 70.7801 475.252 82.2401C464.272 91.0301 453.842 100.48 444.002 110.53C443.502 111.04 444.192 111.62 444.662 111.62H451.262L469.442 111.72L496.782 111.87L530.862 112.05L569.232 112.24L609.492 112.44L649.202 112.62L685.942 112.77C696.392 112.82 706.832 112.86 717.272 112.88H745.042C745.572 113.07 749.542 113.68 748.592 111.15V111.18Z"
                fill="white" />
        </g>
        <path
            d="M748.592 111.18C746.602 105.87 743.212 101.15 740.232 96.3201C733.022 84.6301 724.802 73.5901 715.682 63.3201C709.192 56.0001 702.172 49.1701 694.682 42.8701C693.942 42.2401 691.992 43.0201 691.322 43.3701L684.582 46.9101C684.512 40.4501 683.532 34.0401 681.652 27.8601C680.282 23.5001 678.192 19.0901 674.702 15.9501C674.272 15.4101 673.742 14.9501 673.142 14.6101C672.532 14.2701 671.872 14.0601 671.182 13.9901C670.402 13.7701 669.612 13.5901 668.802 13.3901L648.412 8.28008L624.502 2.29008L617.062 0.42008C616.252 0.22008 615.222 -0.22992 614.432 0.0900804C612.502 0.91008 610.672 1.92008 608.752 2.82008L598.372 7.83008C590.222 11.8101 582.082 15.8301 574.062 20.0101C571.252 21.4601 568.462 22.9201 565.742 24.5201C565.042 24.8301 564.402 25.2501 563.852 25.7701C563.602 26.2301 563.412 26.7101 563.292 27.2101C560.542 34.1801 557.832 41.1601 555.142 48.1601L553.082 53.5001C547.162 50.1601 540.672 47.9301 533.952 46.9501C530.522 46.4701 526.612 45.9301 523.542 47.8101L519.472 50.3201C504.152 60.1301 489.382 70.7801 475.252 82.2401C464.272 91.0301 453.842 100.48 444.002 110.53C443.502 111.04 444.192 111.62 444.662 111.62H451.262L469.442 111.72L496.782 111.87L530.862 112.05L569.232 112.24L609.492 112.44L649.202 112.62L685.942 112.77C696.392 112.82 706.832 112.86 717.272 112.88H745.042C745.572 113.07 749.542 113.68 748.592 111.15V111.18ZM689.912 47.7001C689.912 48.0401 689.802 48.3901 689.722 48.7301C688.892 52.8101 687.182 56.6601 684.712 60.0101L684.472 60.3101L672.752 56.8401C678.462 53.7601 684.182 50.7101 689.902 47.7001H689.912ZM669.432 58.6101C673.332 59.8601 678.502 61.6301 682.512 62.4801C678.972 65.6601 674.702 67.9101 670.082 69.0501C664.762 70.7101 659.122 71.0401 653.642 70.0301H653.232L652.492 69.8301C652.062 69.7101 651.642 69.5701 651.242 69.4201L650.652 69.2101C656.852 65.5301 663.122 62.1001 669.462 58.6201H669.442L669.432 58.6101ZM656.662 62.0101C657.162 51.9801 658.412 43.4901 661.962 34.4401C663.762 36.6701 665.722 39.2301 667.752 41.7801C667.602 43.3301 667.442 44.8901 667.312 46.4401C667.052 49.3101 666.682 53.5701 666.612 56.5801C663.282 58.3601 659.962 60.1701 656.662 62.0101ZM672.182 39.2001C672.842 32.9301 673.582 26.7301 674.352 20.5001C674.432 19.8701 674.512 19.2501 674.592 18.6201C676.502 21.9501 677.872 25.5601 678.652 29.3201C679.742 34.0301 680.382 38.8301 680.582 43.6701C680.582 44.5301 680.682 47.5501 680.692 48.9701C677.392 50.7201 674.102 52.4901 670.802 54.2601C671.052 49.2301 671.652 44.2001 672.182 39.2001ZM670.162 20.2401C669.472 25.7101 668.842 31.2001 668.262 36.6901C666.622 34.8201 664.962 32.9301 663.342 31.1001L663.562 30.6001C665.182 26.8101 667.422 23.3101 670.162 20.2401ZM551.112 56.4801L538.172 60.3501L536.922 60.7101C535.652 59.7201 534.442 58.6301 533.322 57.4601L532.982 57.1001C536.582 55.9201 541.352 54.4901 545.052 53.3401C547.132 54.2601 549.162 55.3101 551.122 56.4701L551.112 56.4801ZM550.642 60.0001C549.762 62.3601 548.892 64.7101 548.052 67.0801C545.122 65.8701 542.312 64.4001 539.662 62.6801C543.212 61.7401 548.052 60.5901 550.652 60.0001H550.642ZM540.612 51.4901L532.142 54.3801L531.092 54.7401C530.612 54.0601 530.162 53.3701 529.762 52.7001C529.762 52.6201 529.672 52.5401 529.622 52.4501C529.532 52.2701 529.432 52.1001 529.362 51.9401C529.292 51.7801 529.032 51.2501 528.882 50.9001C528.732 50.5501 528.442 49.8301 528.272 49.2801L528.092 48.6501C532.392 48.9801 536.612 49.9301 540.632 51.4801H540.612V51.4901ZM726.512 110.8L696.852 110.7L661.202 110.55L621.982 110.37L592.312 110.23C592.452 106.78 592.852 96.8301 592.852 92.1601C592.852 86.4601 590.682 87.9501 590.682 87.9501C586.632 89.9001 582.842 92.3501 579.402 95.2401C579.222 95.3901 579.062 95.5801 578.962 95.8001C578.852 96.0201 578.802 96.2501 578.792 96.4901C578.532 101.67 578.152 110.12 578.152 110.12L579.092 110.21L542.542 110.02L507.202 109.84L478.002 109.69L457.372 109.58H450.282C462.662 96.9001 473.142 88.2801 487.412 77.3801C497.082 70.0101 513.722 58.7601 524.772 51.5901C525.002 52.0301 525.252 52.4801 525.512 52.9601C528.202 57.6701 531.972 61.6801 536.512 64.6401C539.802 66.8601 543.312 68.7201 547.002 70.1901C546.672 71.1001 546.352 72.0201 546.042 72.9301C545.662 74.0701 545.222 75.1901 544.962 76.3501C544.582 77.9501 548.082 80.7901 549.552 76.4801C551.502 70.7401 553.012 65.8901 555.142 60.1901C557.932 52.6701 560.642 46.5601 563.522 39.1301L566.632 31.2001L567.492 28.9801C567.572 28.6901 567.692 28.4101 567.852 28.1501C568.392 27.6901 568.992 27.3001 569.642 27.0101C570.662 26.4101 571.682 25.8401 572.722 25.2801C575.492 23.7601 578.302 22.3101 581.122 20.8801C592.992 14.8001 602.752 10.1901 614.772 4.41008C615.212 4.26008 615.632 4.05008 616.022 3.80008C617.272 4.15008 618.532 4.43008 619.782 4.74008L637.422 9.15008L667.492 16.6701C666.702 17.4401 665.962 18.2501 665.262 19.1001C660.252 25.1401 657.402 32.8801 655.572 40.4001C653.782 48.3301 652.682 56.3901 652.272 64.5101L649.152 66.2501C644.142 69.0701 639.122 71.9401 634.242 74.9201C633.462 75.4001 633.802 75.8501 634.552 75.9801C636.632 76.2901 638.752 75.9801 640.642 75.0701C643.052 73.6001 645.472 72.1701 647.902 70.7501C649.162 71.3401 650.462 71.8301 651.802 72.2201C657.382 73.7301 663.252 73.8901 668.912 72.6801C675.492 71.4301 682.272 69.0101 686.992 64.0701C690.192 60.6001 692.492 56.3901 693.672 51.8101C694.022 50.5401 694.292 49.2601 694.502 47.9601C705.502 57.7701 715.462 68.6901 724.222 80.5401C730.622 89.0901 736.412 98.0801 741.562 107.44C742.192 108.58 742.812 109.72 743.382 110.87L726.512 110.77V110.8Z"
            fill="#E6E8EB" />
        <path
            d="M503.765 77.4202C503.765 77.4202 503.585 85.0102 503.555 85.5502C503.555 85.8502 508.415 85.5502 508.415 85.5502V77.4202C506.875 77.2402 505.315 77.2402 503.765 77.4202Z"
            fill="#C2C8CC" />
        <path
            d="M589.399 32.45C589.399 32.45 589.239 38.45 589.399 40.53C589.399 40.83 594.049 40.59 594.049 40.59V32.44C592.509 32.27 590.949 32.27 589.399 32.44V32.45Z"
            fill="#C2C8CC" />
        <path
            d="M610.055 47.7298C610.055 47.7298 610.155 53.6098 610.055 56.3098C611.935 56.4898 613.835 56.4898 615.715 56.3098C615.715 56.3098 615.865 50.0398 615.655 47.8098C615.675 47.4598 610.055 47.7198 610.055 47.7198V47.7298Z"
            fill="#C2C8CC" />
        <path
            d="M674.844 80.6896C674.844 80.6896 674.934 86.5696 674.844 89.2696C676.554 89.4596 678.274 89.4596 679.984 89.2696C679.984 89.2696 680.124 82.9996 679.984 80.7596C679.944 80.4196 674.844 80.6896 674.844 80.6896Z"
            fill="#C2C8CC" />
        <path
            d="M524.632 87.1601C524.632 87.1601 524.452 95.2401 524.422 95.8201C524.422 96.1301 529.282 95.8201 529.282 95.8201V87.1601C527.742 86.9701 526.172 86.9701 524.632 87.1601Z"
            fill="#C2C8CC" />
        <path
            d="M627.682 19.2105C627.682 19.2105 627.462 27.9805 627.422 28.6705C627.422 29.0205 633.282 28.6705 633.282 28.6705C633.282 28.6705 633.212 22.2005 633.282 19.2105C631.422 19.0105 629.542 19.0105 627.682 19.2105Z"
            fill="#C2C8CC" />
        <path
            d="M695.079 72.6698C695.079 72.6698 694.839 80.7898 694.789 81.3698C694.789 81.6998 701.389 81.3698 701.389 81.3698V72.6698C699.289 72.4798 697.179 72.4798 695.069 72.6698H695.079Z"
            fill="#C2C8CC" />
        <path
            d="M540.645 51.4904L532.175 54.3804L531.125 54.7404C530.645 54.0604 530.195 53.3704 529.795 52.7004C529.795 52.6204 529.705 52.5404 529.655 52.4504C529.565 52.2704 529.465 52.1004 529.395 51.9404C529.315 51.7804 529.065 51.2504 528.915 50.9004C528.765 50.5504 528.475 49.8304 528.305 49.2804L528.125 48.6504C532.415 48.9804 536.635 49.9304 540.645 51.4804V51.4904Z"
            fill="#C2C8CC" />
        <path
            d="M545.064 53.3203C547.144 54.2503 549.164 55.3003 551.114 56.4803L538.174 60.3503L536.924 60.7103C535.654 59.7203 534.444 58.6303 533.324 57.4603L532.984 57.1003C536.634 55.9303 541.364 54.5703 545.064 53.3203Z"
            fill="#C2C8CC" />
        <path
            d="M548.038 67.1093C545.108 65.9093 542.298 64.4293 539.648 62.7093C543.198 61.7693 548.048 60.6193 550.638 60.0293C549.758 62.3593 548.888 64.7193 548.048 67.1093H548.038Z"
            fill="#C2C8CC" />
        <path
            d="M661.941 34.4006C663.741 36.6306 665.701 39.1906 667.731 41.7406C667.581 43.2906 667.421 44.8506 667.291 46.4006C667.031 49.2706 666.661 53.5306 666.591 56.5406C663.251 58.3506 659.931 60.1706 656.641 62.0006C657.171 51.9706 658.421 43.4806 661.941 34.3906V34.4006Z"
            fill="#C2C8CC" />
        <path
            d="M668.201 36.6902C666.561 34.8202 664.901 32.9302 663.281 31.1002L663.501 30.6002C665.131 26.8102 667.361 23.3102 670.101 20.2402C669.451 25.7102 668.811 31.2002 668.201 36.6902Z"
            fill="#C2C8CC" />
        <path
            d="M678.639 29.3206C679.729 34.0306 680.369 38.8406 680.569 43.6706C680.569 44.5306 680.669 47.5506 680.679 48.9706C677.379 50.7206 674.079 52.4906 670.789 54.2606C671.039 49.2506 671.639 44.2406 672.169 39.2206C672.829 32.9506 673.569 26.7506 674.339 20.5206C674.409 19.8906 674.499 19.2706 674.579 18.6406C676.489 21.9606 677.859 25.5606 678.639 29.3206Z"
            fill="#C2C8CC" />
        <path
            d="M684.741 59.9595L684.501 60.2595L672.781 56.7895C678.471 53.7295 684.171 50.6995 689.901 47.6895C689.901 48.0295 689.791 48.3795 689.711 48.7195C688.881 52.7795 687.181 56.6195 684.731 59.9595H684.741Z"
            fill="#C2C8CC" />
        <path
            d="M653.328 69.9606H653.228L652.488 69.7606C652.058 69.6306 651.638 69.5006 651.238 69.3506L650.648 69.1406C656.918 65.5406 663.178 62.0606 669.448 58.6406C673.348 59.8906 678.518 61.6606 682.528 62.5106C678.988 65.6906 674.718 67.9406 670.098 69.0806C664.778 70.7406 659.138 71.0706 653.658 70.0606L653.328 69.9706V69.9606Z"
            fill="#C2C8CC" />
        <path
            d="M479.1 88.8894C477.91 88.9894 476.78 89.4894 475.9 90.2994C475.02 91.1094 474.42 92.1894 474.22 93.3694C474.17 93.6694 474.02 93.9494 473.79 94.1494C473.56 94.3494 473.27 94.4794 472.97 94.4894C471.1 94.5894 467.53 95.6694 467.66 102.639C467.66 102.849 467.63 103.049 467.55 103.239C467.47 103.429 467.34 103.599 467.19 103.729C465.54 105.049 464.45 106.949 464.15 109.049C463.85 111.149 464.37 113.279 465.59 115.009C465.74 115.259 465.8 115.539 465.78 115.829C465.76 116.109 465.65 116.389 465.46 116.609C463.52 118.869 458.78 125.759 468.82 129.909C468.95 129.959 469.07 130.029 469.17 130.119C470.77 131.489 472.73 132.359 474.82 132.619C476.91 132.879 479.03 132.519 480.91 131.579C481.15 131.449 481.43 131.399 481.7 131.429C483.76 131.669 492.88 132.329 492.51 124.479C492.49 124.289 492.51 124.089 492.58 123.909C492.64 123.729 492.75 123.559 492.88 123.419C494.23 122.039 498 117.279 493.08 111.249C492.86 110.979 492.75 110.639 492.77 110.299C492.87 108.559 492.77 102.889 487.85 100.909C487.57 100.799 487.33 100.609 487.17 100.359C487.01 100.109 486.94 99.8094 486.96 99.5094C487.07 98.3194 487.02 96.4294 485.79 95.5294C485.63 95.4194 485.49 95.2694 485.39 95.0994C485.29 94.9294 485.23 94.7394 485.21 94.5394C485.16 93.0094 484.51 91.5694 483.41 90.5094C482.31 89.4494 480.84 88.8594 479.32 88.8594L479.11 88.9094L479.1 88.8894Z"
            fill="#808E7F" />
        <path
            d="M491.984 105.51C490.904 105.56 489.884 106 489.094 106.74C488.304 107.48 487.804 108.47 487.684 109.55C487.634 109.83 487.514 110.09 487.334 110.31C487.154 110.53 486.924 110.7 486.654 110.8C484.834 111.48 481.094 113.51 482.804 118.41C482.894 118.64 482.924 118.89 482.904 119.14C482.704 120.93 482.264 128.95 490.224 128.74C490.634 128.72 491.044 128.87 491.354 129.14C492.674 130.27 496.594 132.84 500.124 126.81C500.284 126.53 500.514 126.3 500.804 126.16C502.224 125.45 506.624 122.7 503.574 117.14C503.434 116.89 503.354 116.61 503.364 116.32C503.434 115.51 503.344 114.7 503.094 113.93C502.844 113.16 502.444 112.45 501.924 111.83C501.394 111.21 500.754 110.71 500.034 110.35C499.314 109.99 498.524 109.77 497.714 109.72C497.444 109.68 497.184 109.57 496.964 109.4C496.744 109.23 496.574 109.01 496.464 108.76C496.124 107.84 495.514 107.04 494.724 106.46C493.924 105.88 492.974 105.56 491.994 105.53L491.984 105.51Z"
            fill="#DBCF7B" />
        <path
            d="M760.03 84.91C759.83 84.85 759.66 84.73 759.53 84.57C759.4 84.41 759.32 84.21 759.3 84.01C759.17 82.42 758.62 78.83 756.19 78.75C753.22 78.66 750.68 81.73 750.01 85.77C749.98 85.97 749.89 86.16 749.76 86.31C749.62 86.46 749.45 86.57 749.25 86.61C747.47 86.88 745.85 87.8 744.7 89.19C743.55 90.57 742.94 92.33 742.99 94.13C742.99 94.29 742.96 94.45 742.89 94.59C742.82 94.73 742.72 94.86 742.6 94.96C741.22 95.99 737.1 99.65 741.08 103.97C741.21 104.11 741.29 104.28 741.32 104.47C741.35 104.66 741.32 104.85 741.25 105.02C740.45 106.96 738.35 113.04 742.5 115.92C742.62 116 742.72 116.1 742.8 116.21C742.88 116.33 742.93 116.46 742.96 116.59C743.25 118.23 744.78 123.96 751.66 122.2C751.86 122.14 752.08 122.14 752.28 122.2C753.67 122.74 759.87 124.71 763.56 117.45C763.64 117.3 763.74 117.18 763.87 117.07C765.31 116.03 773.82 109.44 767.89 102.62C767.71 102.42 767.62 102.16 767.63 101.89C767.72 100.19 767.76 93.49 762.82 88.87C762.67 88.73 762.57 88.56 762.52 88.37C762.19 87.62 761.61 85.49 760.04 84.9L760.03 84.91Z"
            fill="#DBCF7B" />
        <path
            d="M736.772 63.6394C736.772 63.6394 731.612 62.7594 729.252 71.2194C729.172 71.4794 729.032 71.7194 728.832 71.8994C728.632 72.0794 728.382 72.2094 728.112 72.2594C725.382 72.8394 717.672 75.3094 720.272 84.4294C720.362 84.7394 720.352 85.0694 720.232 85.3794C720.122 85.6794 719.912 85.9394 719.642 86.1194C717.132 87.7694 710.872 92.8994 716.902 100.409C717.072 100.619 717.172 100.869 717.212 101.139C717.252 101.409 717.212 101.679 717.102 101.929C716.072 104.349 713.892 111.389 722.222 113.709C722.452 113.769 722.662 113.879 722.842 114.029C723.022 114.179 723.162 114.379 723.252 114.599C724.242 117.109 728.462 124.859 740.632 118.959C740.832 118.859 741.052 118.809 741.272 118.809C743.252 118.809 753.662 118.229 751.902 106.939C751.872 106.689 751.902 106.439 751.972 106.199C752.052 105.969 752.192 105.749 752.372 105.579C754.142 103.919 758.642 98.5094 753.082 90.7694C752.882 90.4894 752.772 90.1394 752.782 89.7894C752.852 88.4194 752.782 84.6294 749.572 83.0094C749.332 82.8894 749.132 82.7094 748.982 82.4894C748.832 82.2694 748.742 82.0194 748.722 81.7494C748.692 79.8194 748.082 77.9494 746.962 76.3894C745.842 74.8194 744.272 73.6294 742.462 72.9794C742.152 72.8694 741.882 72.6694 741.702 72.3994C741.522 72.1294 741.432 71.7994 741.442 71.4794C741.532 69.1494 741.262 64.2494 736.772 63.6394Z"
            fill="#808E7F" />
        <path opacity="0.6"
            d="M4.35744 175.59C47.3874 175.38 89.9274 166.83 132.977 167.22C175.737 167.61 217.937 179.47 258.857 190.85C299.957 202.27 340.907 214.03 383.037 221.15C423.437 227.98 464.067 230.5 505.007 229.26C539.107 228.23 573.647 226.33 607.317 220.6C610.297 220.09 613.257 219.54 616.217 218.92C617.957 218.55 621.397 217.55 621.087 215.14C620.797 212.87 616.877 212.67 615.307 213C601.167 215.97 586.737 217.63 572.367 219.04C554.597 220.79 536.777 221.93 518.947 222.68C500.297 223.46 481.607 223.88 462.947 223.2C441.787 222.42 420.697 220.29 399.757 217.15C357.697 210.83 316.807 199.81 275.917 188.35C255.197 182.54 234.437 176.8 213.457 171.97C192.657 167.18 171.557 163.02 150.227 161.64C107.367 158.87 64.9074 167.1 22.2074 169.05C16.9074 169.29 11.5974 169.43 6.29744 169.46C4.29744 169.46 0.677441 170.22 0.0674411 172.53C-0.542559 174.84 2.70744 175.6 4.34744 175.6L4.35744 175.59Z"
            fill="#BDE1EF" />
        <path opacity="0.6"
            d="M501.47 211.181C534.38 210.931 566.51 203.311 598.32 195.581C614.05 191.761 629.78 187.851 645.69 184.901C661.6 181.951 677.57 180.161 693.67 179.231C726.05 177.361 758.65 178.921 790.79 183.251C823.35 187.631 854.9 196.121 886.78 203.751C902.97 207.631 919.27 211.151 935.79 213.291C952.31 215.431 969.2 216.321 985.96 216.581C990.15 216.641 994.34 216.671 998.53 216.671C1001.02 216.671 1003.51 215.501 1005.33 213.811C1006.14 213.061 1008.07 210.241 1005.55 210.241C988.85 210.241 972.14 209.811 955.51 208.261C938.88 206.711 922.19 203.761 905.75 200.091C873.63 192.901 842.03 183.641 809.46 178.511C777.48 173.481 745.03 171.331 712.67 172.231C696.5 172.681 680.31 173.881 664.31 176.241C648.28 178.601 632.43 182.131 616.68 185.891C584.91 193.461 553.13 202.211 520.4 204.311C516.44 204.561 512.47 204.721 508.5 204.751C506.01 204.771 503.52 205.911 501.7 207.611C500.9 208.351 498.95 211.201 501.48 211.181H501.47Z"
            fill="#BDE1EF" />
        <path opacity="0.6"
            d="M1208.49 145.639C1188.06 145.559 1167.76 142.829 1147.41 141.409C1126.94 139.979 1106.1 139.849 1086.07 144.849C1071.92 148.389 1058.09 153.189 1044.06 157.159C1040.45 158.179 1036.83 159.169 1033.2 160.109C1032.77 160.219 1032.34 160.329 1031.91 160.439C1031.74 160.479 1030.3 160.839 1031.12 160.639C1030.12 160.889 1029.12 161.129 1028.12 161.369C1026.22 161.829 1024.31 162.269 1022.4 162.689C1014.42 164.469 1006.37 165.939 998.261 167.039C979.761 169.539 961.101 169.939 942.471 168.319C939.871 168.089 937.261 167.829 934.671 167.529C932.451 167.269 929.701 169.059 928.291 170.639C927.351 171.699 926.041 173.929 928.361 174.189C947.691 176.409 967.201 176.539 986.551 174.469C1002.91 172.719 1019.02 169.319 1034.9 165.059C1048.73 161.349 1062.35 156.929 1076.1 152.949C1085 150.369 1094.05 148.609 1103.49 147.789C1113.45 146.929 1123.48 147.069 1133.45 147.579C1153.91 148.639 1174.25 151.469 1194.74 152.139C1197.22 152.219 1199.7 152.269 1202.17 152.279C1204.5 152.279 1207.02 150.889 1208.55 149.169C1209.34 148.279 1210.91 145.629 1208.48 145.619L1208.49 145.639Z"
            fill="#BDE1EF" />
        <path
            d="M808.91 63.9092C804.21 62.4592 798.22 64.5092 796.52 68.4092C794.82 72.3092 798.23 77.2192 803.22 77.6992C800.15 78.1992 797.93 80.5692 797.15 83.0692C796.39 85.4892 796.83 88.3092 798.97 90.0792C801.11 91.8492 805.13 92.0592 807.05 90.1192C804.5 91.0792 802.7 93.2792 802.59 95.5892C802.48 97.8992 804.05 100.209 806.5 101.339C809.86 102.889 814.35 102.039 817.13 99.8392C819.91 97.6392 821.12 94.3592 821.14 91.1792C821.14 90.4492 821.02 89.6092 820.27 89.2192C819.53 88.8292 818.25 89.5592 818.77 90.1492C821.34 91.4492 824.82 90.3792 826.91 88.5992C829.78 86.1492 830.87 82.2392 829.1 79.1592C827.33 76.0792 822.55 74.2792 818.72 75.5692C819.91 76.3692 821.79 76.0592 822.91 75.1892C824.03 74.3192 824.54 73.0592 824.93 71.8392C825.43 70.2492 825.78 68.5692 825.27 66.9792C824.75 65.3992 823.16 63.9492 821.17 63.8392C819.18 63.7292 817.2 65.4292 817.85 66.9792C818.92 67.5192 820.42 67.1792 821.24 66.3992C822.06 65.6192 822.3 64.5092 822.18 63.4792C821.83 60.4792 818.38 57.9392 814.72 58.0092C811.06 58.0792 807.74 60.7292 808.91 63.8992V63.9092Z"
            fill="#7F8D7E" />
        <path
            d="M812.53 113.329C812.11 113.299 811.8 113.009 811.8 112.669L811.71 91.9592C811.71 90.7992 811.7 89.6392 811.38 88.5092C810.79 86.3892 809.14 84.4592 808.94 82.3292C808.91 81.9692 809.21 81.6292 809.64 81.5992C809.64 81.5992 809.66 81.5992 809.67 81.5992C810.09 81.5692 810.44 81.8592 810.49 82.2092C810.64 83.3992 811.03 84.5592 811.64 85.6492C811.95 86.2092 813.01 88.8392 813.01 88.8392C813.01 88.8392 814.01 84.9792 814.37 83.7192C814.58 82.9892 815.05 80.8992 815.94 81.1992C816.67 81.4492 816.53 82.7992 816.01 84.4692C814.57 89.1592 813.73 103.129 815.08 112.499C815.13 112.819 814.9 113.129 814.53 113.209C813.85 113.369 813.11 113.379 812.51 113.339L812.53 113.329Z"
            fill="#657064" />
        <path
            d="M808.91 63.9092C804.21 62.4592 798.22 64.5092 796.52 68.4092C794.82 72.3092 798.23 77.2192 803.22 77.6992C800.15 78.1992 797.93 80.5692 797.15 83.0692C796.39 85.4892 796.83 88.3092 798.97 90.0792C801.11 91.8492 805.13 92.0592 807.05 90.1192C804.5 91.0792 802.7 93.2792 802.59 95.5892C802.48 97.8992 804.05 100.209 806.5 101.339C809.86 102.889 814.35 102.039 817.13 99.8392C819.91 97.6392 821.12 94.3592 821.14 91.1792C821.14 90.4492 821.02 89.6092 820.27 89.2192C819.53 88.8292 818.25 89.5592 818.77 90.1492C821.34 91.4492 824.82 90.3792 826.91 88.5992C829.78 86.1492 830.87 82.2392 829.1 79.1592C827.33 76.0792 822.55 74.2792 818.72 75.5692C819.91 76.3692 821.79 76.0592 822.91 75.1892C824.03 74.3192 824.54 73.0592 824.93 71.8392C825.43 70.2492 825.78 68.5692 825.27 66.9792C824.75 65.3992 823.16 63.9492 821.17 63.8392C819.18 63.7292 817.2 65.4292 817.85 66.9792C818.92 67.5192 820.42 67.1792 821.24 66.3992C822.06 65.6192 822.3 64.5092 822.18 63.4792C821.83 60.4792 818.38 57.9392 814.72 58.0092C811.06 58.0792 807.74 60.7292 808.91 63.8992V63.9092Z"
            fill="#7F8D7E" />
        <path
            d="M812.53 113.329C812.11 113.299 811.8 113.009 811.8 112.669L811.71 91.9592C811.71 90.7992 811.7 89.6392 811.38 88.5092C810.79 86.3892 809.14 84.4592 808.94 82.3292C808.91 81.9692 809.21 81.6292 809.64 81.5992C809.64 81.5992 809.66 81.5992 809.67 81.5992C810.09 81.5692 810.44 81.8592 810.49 82.2092C810.64 83.3992 811.03 84.5592 811.64 85.6492C811.95 86.2092 813.01 88.8392 813.01 88.8392C813.01 88.8392 814.01 84.9792 814.37 83.7192C814.58 82.9892 815.05 80.8992 815.94 81.1992C816.67 81.4492 816.53 82.7992 816.01 84.4692C814.57 89.1592 813.73 103.129 815.08 112.499C815.13 112.819 814.9 113.129 814.53 113.209C813.85 113.369 813.11 113.379 812.51 113.339L812.53 113.329Z"
            fill="#657064" />
        <path
            d="M826.311 76.851C822.221 75.781 817.011 77.291 815.541 80.171C814.061 83.051 817.031 86.681 821.361 87.031C818.691 87.401 816.761 89.151 816.081 90.991C815.421 92.781 815.801 94.861 817.661 96.171C819.521 97.481 823.011 97.631 824.681 96.201C822.461 96.911 820.901 98.531 820.801 100.241C820.701 101.951 822.071 103.651 824.201 104.491C827.121 105.631 831.031 105.011 833.441 103.391C835.851 101.771 836.911 99.341 836.931 97.001C836.931 96.461 836.821 95.841 836.181 95.551C835.541 95.261 834.431 95.801 834.871 96.241C837.101 97.201 840.131 96.411 841.941 95.091C844.441 93.281 845.381 90.391 843.841 88.121C842.301 85.851 838.151 84.521 834.821 85.471C835.851 86.061 837.491 85.831 838.461 85.191C839.431 84.551 839.881 83.621 840.221 82.711C840.661 81.541 840.961 80.291 840.511 79.121C840.061 77.951 838.681 76.881 836.951 76.801C835.221 76.721 833.501 77.971 834.061 79.121C834.991 79.521 836.291 79.271 837.011 78.691C837.731 78.111 837.931 77.301 837.831 76.541C837.531 74.321 834.521 72.451 831.341 72.501C828.161 72.551 825.271 74.511 826.291 76.851H826.311Z"
            fill="#7F8D7E" />
        <path
            d="M829.45 113.341C829.09 113.321 828.81 113.111 828.81 112.851L828.73 97.5612C828.73 96.7112 828.72 95.8412 828.45 95.0112C827.94 93.4512 826.5 92.0212 826.33 90.4512C826.3 90.1812 826.56 89.9312 826.94 89.9112H826.96C827.33 89.8912 827.63 90.1012 827.67 90.3612C827.8 91.2412 828.14 92.1012 828.67 92.9012C828.94 93.3112 829.86 95.2512 829.86 95.2512C829.86 95.2512 830.73 92.4012 831.05 91.4712C831.23 90.9312 831.65 89.3912 832.42 89.6112C833.05 89.7912 832.93 90.7912 832.48 92.0312C831.23 95.4912 830.49 105.811 831.68 112.721C831.72 112.951 831.52 113.181 831.2 113.251C830.6 113.371 829.97 113.381 829.45 113.341Z"
            fill="#657064" />
        <path d="M375.191 76.9688H371.461V121.299H375.191V76.9688Z" fill="#9F856E" />
        <path d="M364.184 86.882L361.547 89.5195L371.814 99.7867L374.452 97.1492L364.184 86.882Z" fill="#9F856E" />
        <path d="M386.283 84.0597L371.281 97.3926L373.759 100.181L388.76 86.8477L386.283 84.0597Z" fill="#9F856E" />
        <path
            d="M365.7 90.4601C359.59 88.3701 352.95 85.8601 349.79 80.2301C349.03 78.8701 348.5 77.3001 348.75 75.7601C349 74.2201 350.2 72.7601 351.76 72.6201C353.05 72.5001 354.26 73.2501 355.31 74.0101C360.17 77.5601 364.3 82.1101 367.36 87.2901C367.92 88.2401 368.4 89.5701 367.59 90.3201C366.49 91.3501 364.86 89.8801 365.71 90.4601H365.7Z"
            fill="#E0D199" />
        <path
            d="M383.702 89.0802C388.292 84.8502 393.472 80.3802 399.562 80.4802C401.032 80.5002 402.572 80.8402 403.712 81.8302C404.852 82.8202 405.472 84.6002 404.862 86.0102C404.352 87.1902 403.172 87.8502 402.052 88.3702C396.862 90.7902 391.202 92.0602 385.522 92.0902C384.482 92.0902 383.172 91.8402 382.942 90.7702C382.622 89.3002 384.592 88.6402 383.712 89.0702L383.702 89.0802Z"
            fill="#E0D199" />
        <path
            d="M365.07 81.3287C362.71 79.9487 361.42 77.2787 360.62 74.6587C359.66 71.5287 359.25 67.9587 360.85 65.0987C361.46 64.0187 362.52 63.0187 363.75 63.1387C365.06 63.2687 365.9 64.5587 366.45 65.7487C368.27 69.6787 369.11 74.1087 368.53 78.3987C368.42 79.2187 368.24 80.0687 367.74 80.7387C367.24 81.4087 366.34 81.8387 365.56 81.5587C364.77 81.2787 364.36 80.4287 365.08 81.3287H365.07Z"
            fill="#7F8D7E" />
        <path
            d="M376.668 78.4496C377.358 75.3496 378.068 72.2196 379.448 69.3696C380.838 66.5196 382.988 63.9196 385.888 62.6196C387.258 62.0096 388.918 61.7196 390.238 62.4296C391.458 63.0896 392.148 64.4996 392.248 65.8796C392.358 67.2696 391.958 68.6396 391.468 69.9396C389.978 73.8796 387.558 77.4596 384.468 80.2996C383.428 81.2596 382.268 82.1496 380.918 82.5696C380.218 82.7896 379.448 82.8696 378.748 82.6296C377.478 82.2096 376.728 80.8196 376.638 79.4896C376.548 78.1496 376.978 76.8396 376.668 78.4396V78.4496Z"
            fill="#7F8D7E" />
        <path
            d="M371.58 90.3188C370.38 89.1388 370.02 87.3688 369.82 85.6988C369.18 80.1688 369.94 74.0888 373.71 69.9988C374.66 68.9788 375.97 68.0488 377.34 68.3188C378.84 68.6088 379.71 70.1988 380.14 71.6688C381.83 77.4388 379.93 83.8188 376.34 88.6288C375.67 89.5288 374.86 90.4288 373.76 90.6488C372.22 90.9588 370.6 89.4688 371.58 90.3188Z"
            fill="#E0D199" />
        <path
            d="M384.738 85.3295C384.888 80.7595 388.178 76.5895 392.768 75.1695C393.458 74.9495 394.208 74.7995 394.948 74.9195C395.688 75.0395 396.428 75.5195 396.648 76.1995C396.808 76.6995 396.678 77.2095 396.508 77.6895C396.028 78.9895 395.228 80.1595 394.408 81.2895C392.778 83.5495 391.018 85.7795 388.718 87.4595C388.118 87.8995 387.458 88.2995 386.688 88.3895C385.918 88.4795 385.008 88.1695 384.648 87.4995C384.418 87.0795 384.438 86.5895 384.478 86.1295C384.618 84.6495 384.988 83.1995 384.738 85.3195V85.3295Z"
            fill="#7F8D7E" />
        <path
            d="M363.169 88.5399C359.809 85.5499 354.689 84.5099 350.669 85.9999C350.059 86.2299 349.459 86.5199 349.069 86.9999C348.679 87.4799 348.529 88.1899 348.869 88.7599C349.119 89.1799 349.569 89.4599 350.019 89.6799C351.259 90.2999 352.619 90.6499 353.959 90.9799C356.639 91.6299 359.379 92.1899 362.079 92.0899C362.779 92.0599 363.509 91.9799 364.079 91.6299C364.649 91.2799 365.019 90.5899 364.779 89.9499C364.629 89.5399 364.269 89.2299 363.919 88.9399C362.769 88.0199 361.499 87.2499 363.169 88.5299V88.5399Z"
            fill="#7F8D7E" />
        <path
            d="M662.024 127.949C662.524 129.049 662.734 129.839 662.924 131.089C663.114 132.339 662.924 133.749 662.194 134.629C661.684 135.249 660.964 135.529 660.254 135.589C658.394 135.749 656.464 134.349 655.814 132.129C655.164 129.909 656.054 127.079 657.794 126.259C659.534 125.429 661.554 127.049 662.004 127.959L662.024 127.949Z"
            fill="#D9D5BC" />
        <path
            d="M659.699 133.659C660.159 135.409 660.579 137.169 660.939 138.939C659.899 138.209 658.629 137.809 657.359 137.819C657.619 136.409 657.669 134.959 657.499 133.539C657.999 133.629 658.499 133.719 658.999 133.809C659.329 133.869 659.729 133.909 659.699 133.649V133.659Z"
            fill="#D9D5BC" />
        <path
            d="M657.491 128.75C656.421 128.8 655.351 128.84 654.281 128.89C654.951 129.83 655.801 130.65 656.761 131.3C656.981 130.58 657.191 129.85 657.491 128.75Z"
            fill="#D9D5BC" />
        <path
            d="M663.698 145.98C665.588 151.27 664.257 157.11 662.907 162.57C662.867 162.75 662.807 162.94 662.667 163.05C662.507 163.17 662.278 163.16 662.078 163.14C661.348 163.06 660.618 162.99 659.878 162.91C660.458 158.48 660.687 154.01 660.537 149.55C660.497 148.31 660.407 147.01 659.737 145.97C659.827 151.62 658.908 157.28 657.008 162.6C656.008 162.3 654.977 162.12 653.938 162.05C655.327 155.96 656.298 149.78 656.838 143.56C658.938 142.94 662.618 142.96 663.688 145.98H663.698Z"
            fill="#CDD2D5" />
        <path
            d="M661.718 136.899C663.398 137.619 664.168 138.969 664.858 140.139C666.868 143.539 667.978 147.089 668.148 150.649C664.288 149.999 660.218 149.699 656.178 149.749C656.088 145.619 655.988 141.479 655.898 137.349C655.898 137.019 655.898 136.679 656.168 136.389C656.818 135.709 658.718 135.669 659.878 136.099C661.038 136.539 661.148 136.639 661.728 136.889L661.718 136.899Z"
            fill="#758474" />
        <path
            d="M658.211 140.739C654.371 138.569 651.061 135.459 648.641 131.769C649.571 131.329 650.501 130.889 651.431 130.449C653.451 133.859 655.871 137.169 659.251 139.239C658.841 139.699 658.461 140.189 658.201 140.749L658.211 140.739Z"
            fill="#D9D5BC" />
        <path
            d="M656.3 127.5C657.36 128.41 658.49 129.24 659.69 129.96C660.01 131.48 660.34 133 660.66 134.52C660.69 134.65 660.72 134.79 660.79 134.91C660.89 135.08 661.07 135.18 661.25 135.26C662.33 135.71 663.64 135.08 664.23 134.06C664.82 133.04 664.79 131.78 664.46 130.66C663.81 128.4 662 126.52 659.77 125.79C658.97 125.53 658.06 125.42 657.32 125.81C656.58 126.2 656.07 127.3 656.31 127.51L656.3 127.5Z"
            fill="#657064" />
        <path
            d="M664.037 130.05C663.627 129.45 663.207 128.7 663.527 128.05C663.647 127.82 663.847 127.64 664.047 127.47C664.397 127.18 664.787 126.91 665.217 126.77C666.237 126.42 667.487 126.89 667.957 127.85C668.427 128.81 668.007 130.14 667.027 130.58C666.617 130.76 666.147 130.79 665.687 130.75C665.087 130.7 664.427 130.47 664.157 129.93C663.897 129.41 664.087 128.78 664.027 130.04L664.037 130.05Z"
            fill="#657064" />
        <path
            d="M289.906 77.7506C289.236 78.8106 288.906 79.5906 288.526 80.8406C288.146 82.0906 288.146 83.5706 288.766 84.5706C289.206 85.2806 289.906 85.6706 290.616 85.8306C292.496 86.2606 294.686 85.1006 295.666 82.9206C296.646 80.7406 296.146 77.7106 294.466 76.6106C292.786 75.5106 290.496 76.8806 289.896 77.7506H289.906Z"
            fill="#D9D5BC" />
        <path
            d="M291.467 83.9512C290.747 85.6812 290.067 87.4312 289.438 89.2012C290.607 88.6012 291.967 88.3812 293.277 88.5612C293.207 87.0812 293.367 85.5812 293.747 84.1512C293.217 84.1712 292.698 84.1912 292.168 84.2112C291.818 84.2212 291.407 84.2112 291.467 83.9512Z"
            fill="#D9D5BC" />
        <path
            d="M285.596 96.0213C282.896 101.181 283.436 107.371 284.036 113.161C284.056 113.351 284.086 113.551 284.216 113.691C284.366 113.841 284.596 113.861 284.816 113.861C285.576 113.891 286.346 113.911 287.106 113.941C287.136 109.311 287.556 104.691 288.336 100.131C288.556 98.8713 288.826 97.5413 289.666 96.5713C288.766 102.351 288.906 108.301 290.086 114.031C291.156 113.871 292.236 113.821 293.316 113.901C292.756 107.451 292.646 100.971 292.986 94.5113C290.916 93.5713 287.146 93.0713 285.606 96.0113L285.596 96.0213Z"
            fill="#CDD2D5" />
        <path
            d="M288.937 86.9798C287.107 87.4698 286.127 88.7498 285.247 89.8498C282.707 93.0498 281.057 96.5398 280.367 100.17C284.427 100.06 288.637 100.33 292.787 100.96C293.477 96.7298 294.157 92.4998 294.847 88.2798C294.897 87.9498 294.947 87.5998 294.707 87.2598C294.137 86.4698 292.197 86.1498 290.937 86.4298C289.687 86.7098 289.547 86.7998 288.927 86.9698L288.937 86.9798Z"
            fill="#758474" />
        <path
            d="M293.189 90.8602C297.329 88.9102 300.989 85.9502 303.759 82.3202C302.829 81.7902 301.909 81.2702 300.979 80.7402C298.629 84.1102 295.869 87.3402 292.219 89.2202C292.609 89.7202 292.959 90.2602 293.189 90.8602Z"
            fill="#D9D5BC" />
        <path
            d="M289.101 76.8501C287.571 78.4801 287.831 80.7701 288.051 83.0001C288.071 83.2401 288.121 83.5001 288.271 83.6901C288.611 84.1301 289.321 84.0501 289.801 83.7701C290.281 83.4901 290.681 83.0501 291.201 82.8501C292.551 82.3201 294.211 83.5301 295.471 82.8101C296.031 82.4901 296.341 81.8601 296.481 81.2401C296.941 79.2501 295.541 76.5701 294.681 76.2101C292.231 75.2001 287.921 77.1201 289.111 76.8601L289.101 76.8501Z"
            fill="#657064" />
        <path
            d="M788.483 117.309C789.223 118.249 789.603 118.949 790.053 120.089C790.503 121.239 790.593 122.619 790.023 123.609C789.623 124.309 788.933 124.729 788.223 124.949C786.343 125.509 784.063 124.599 782.943 122.639C781.833 120.669 782.173 117.789 783.803 116.619C785.433 115.449 787.843 116.539 788.493 117.309H788.483Z"
            fill="#D9D5BC" />
        <path
            d="M787.251 123.25C788.081 124.81 788.861 126.4 789.601 128C788.381 127.54 786.991 127.44 785.681 127.72C785.671 126.32 785.421 124.94 784.961 123.62C785.491 123.6 786.031 123.57 786.561 123.55C786.911 123.53 787.331 123.48 787.251 123.25Z"
            fill="#D9D5BC" />
        <path
            d="M791.884 127.508C795.184 124.348 797.684 120.468 799.114 116.308C798.054 116.168 796.994 116.038 795.934 115.898C794.824 119.678 793.264 123.478 790.414 126.408C790.954 126.708 791.474 127.058 791.884 127.508Z"
            fill="#D9D5BC" />
        <path
            d="M783.967 119.07C782.877 119.35 781.778 119.63 780.688 119.9C781.567 120.65 782.607 121.24 783.727 121.65C783.807 120.91 783.877 120.18 783.967 119.07Z"
            fill="#D9D5BC" />
        <path
            d="M787.539 137.899C787.589 144.219 787.339 150.539 786.789 156.839C788.049 156.659 789.309 156.489 790.569 156.309C790.739 156.289 790.919 156.259 791.049 156.139C791.179 156.019 791.209 155.829 791.229 155.649C791.929 150.599 792.519 145.529 792.979 140.449C793.129 142.429 793.639 144.389 794.459 146.199C794.699 146.719 794.969 147.249 795.419 147.619C796.619 148.629 798.459 148.099 799.809 147.309C802.129 145.939 804.009 143.959 805.789 141.949C805.989 141.729 806.189 141.489 806.279 141.199C806.519 140.359 805.649 139.579 805.589 138.709C803.809 140.579 801.929 142.499 799.499 143.379C799.139 143.509 798.719 143.609 798.389 143.429C798.099 143.269 797.949 142.949 797.849 142.639C797.169 140.479 798.089 138.109 797.609 135.899C797.569 135.729 797.519 135.539 797.369 135.439C797.159 135.289 796.869 135.369 796.629 135.459C793.849 136.459 790.939 137.119 787.539 137.909V137.899Z"
            fill="#CDD2D5" />
        <path
            d="M789.983 125.889C791.863 126.199 792.923 127.319 793.873 128.279C796.633 131.069 798.493 134.199 799.383 137.549C795.263 137.779 791.013 138.379 786.853 139.319C785.923 135.409 784.993 131.499 784.053 127.599C783.983 127.289 783.913 126.969 784.133 126.629C784.663 125.839 786.613 125.379 787.903 125.539C789.183 125.699 789.323 125.779 789.973 125.879L789.983 125.889Z"
            fill="#7F8D7E" />
        <path
            d="M786.011 128.66C785.061 133.13 783.081 137.3 780.301 140.71C779.631 139.88 778.951 139.05 778.281 138.22C780.901 135.28 783.321 131.96 784.301 127.99C784.841 128.29 785.411 128.54 786.011 128.66Z"
            fill="#D9D5BC" />
        <path
            d="M782.489 118.139C783.759 118.779 785.099 119.309 786.479 119.729C787.119 121.109 787.759 122.479 788.399 123.859C788.459 123.979 788.509 124.099 788.609 124.199C788.749 124.339 788.949 124.399 789.149 124.429C790.349 124.619 791.579 123.729 791.979 122.639C792.379 121.549 792.089 120.349 791.529 119.349C790.409 117.349 788.149 115.949 785.699 115.749C784.819 115.679 783.859 115.769 783.169 116.309C782.479 116.839 782.189 117.999 782.479 118.149L782.489 118.139Z"
            fill="#657064" />
        <path
            d="M790.993 118.869C790.453 118.389 789.863 117.769 790.063 117.079C790.133 116.829 790.313 116.619 790.483 116.419C790.793 116.069 791.133 115.729 791.543 115.499C792.523 114.949 793.903 115.119 794.593 115.929C795.283 116.739 795.103 118.099 794.183 118.729C793.793 118.999 793.313 119.129 792.843 119.189C792.213 119.269 791.493 119.199 791.103 118.749C790.723 118.309 790.793 117.669 790.993 118.889V118.869Z"
            fill="#657064" />
        <path
            d="M281.832 218.439C281.862 218.379 281.832 218.289 281.772 218.279C280.932 218.099 279.872 218.439 278.902 218.679C278.192 218.849 276.852 219.409 276.112 219.729C274.672 219.389 270.462 218.409 269.432 218.259C269.132 218.219 268.442 218.139 267.512 218.079C266.462 216.899 265.922 214.919 265.732 214.039C265.682 213.829 265.482 213.749 265.342 213.879C263.642 215.439 262.442 217.149 261.872 218.029C260.092 218.119 258.262 218.339 256.662 218.779C256.352 218.869 256.042 218.959 255.752 219.059C254.542 219.479 253.652 219.849 253.002 220.179C251.092 221.149 251.312 221.789 252.022 222.579C252.972 223.629 255.392 224.599 256.712 224.779C256.872 224.799 257.112 224.839 257.422 224.879C257.652 224.909 257.932 224.949 258.232 224.989C258.682 225.339 259.322 225.619 260.162 225.369C260.292 225.329 260.392 225.289 260.492 225.249C261.292 225.329 262.162 225.389 263.052 225.419C263.102 225.479 264.272 226.959 265.632 227.449C265.692 227.469 265.762 227.449 265.802 227.379C265.922 227.159 266.172 226.549 266.182 225.359C267.302 225.269 268.372 225.089 269.292 224.769C269.292 224.769 271.242 226.449 273.162 226.959C273.252 226.979 273.352 226.909 273.362 226.799C273.432 226.309 273.532 225.009 272.862 223.639C274.202 223.239 275.222 222.969 275.882 222.769C276.552 223.059 277.442 223.499 278.342 224.119C279.832 225.139 281.112 225.009 281.482 224.939C281.542 224.929 281.572 224.859 281.552 224.799C281.072 223.519 279.312 221.629 279.312 221.629C280.322 221.099 281.532 219.009 281.832 218.469V218.439Z"
            fill="#E0E3E5" />
        <path
            d="M246.493 217.02C246.493 217.02 246.473 217.02 246.453 217.02C246.453 217.02 246.483 217.03 246.493 217.02Z"
            fill="#E0E3E5" />
        <path
            d="M846.261 222.639C846.291 222.579 846.261 222.489 846.201 222.479C845.361 222.299 844.301 222.639 843.331 222.879C842.621 223.049 841.281 223.609 840.541 223.929C839.101 223.589 834.891 222.609 833.861 222.459C833.561 222.419 832.871 222.339 831.941 222.279C830.891 221.099 830.351 219.119 830.161 218.239C830.111 218.029 829.911 217.949 829.771 218.079C828.071 219.639 826.871 221.349 826.301 222.229C824.521 222.319 822.691 222.539 821.091 222.979C820.781 223.069 820.471 223.159 820.181 223.259C818.971 223.679 818.081 224.049 817.431 224.379C815.521 225.349 815.741 225.989 816.451 226.779C817.401 227.829 819.821 228.799 821.141 228.979C821.301 228.999 821.541 229.039 821.851 229.079C822.081 229.109 822.361 229.149 822.661 229.189C823.111 229.539 823.751 229.819 824.591 229.569C824.721 229.529 824.821 229.489 824.921 229.449C825.721 229.529 826.591 229.589 827.481 229.619C827.531 229.679 828.701 231.159 830.061 231.649C830.121 231.669 830.191 231.649 830.231 231.579C830.351 231.359 830.601 230.749 830.611 229.559C831.731 229.469 832.801 229.289 833.721 228.969C833.721 228.969 835.671 230.649 837.591 231.159C837.681 231.179 837.781 231.109 837.791 230.999C837.861 230.509 837.961 229.209 837.291 227.839C838.631 227.439 839.651 227.169 840.311 226.969C840.981 227.259 841.871 227.699 842.771 228.319C844.261 229.339 845.541 229.209 845.911 229.139C845.971 229.129 846.001 229.059 845.981 228.999C845.501 227.719 843.741 225.829 843.741 225.829C844.751 225.299 845.961 223.209 846.261 222.669V222.639Z"
            fill="#E0E3E5" />
        <path
            d="M810.915 221.209C810.915 221.209 810.895 221.209 810.875 221.209C810.875 221.209 810.905 221.219 810.915 221.209Z"
            fill="#E0E3E5" />
        <path
            d="M1045.53 240.68C1045.56 240.63 1045.53 240.55 1045.48 240.54C1044.77 240.39 1043.89 240.68 1043.08 240.87C1042.48 241.01 1041.36 241.48 1040.74 241.75C1039.53 241.47 1036 240.64 1035.14 240.52C1034.89 240.48 1034.31 240.42 1033.53 240.37C1032.65 239.38 1032.2 237.72 1032.04 236.98C1032 236.81 1031.83 236.73 1031.71 236.84C1030.29 238.15 1029.28 239.58 1028.8 240.31C1027.31 240.39 1025.77 240.57 1024.43 240.94C1024.17 241.01 1023.91 241.09 1023.67 241.18C1022.66 241.53 1021.91 241.84 1021.36 242.12C1019.76 242.93 1019.94 243.47 1020.54 244.13C1021.34 245.01 1023.36 245.82 1024.47 245.97C1024.6 245.99 1024.81 246.02 1025.07 246.06C1025.26 246.09 1025.5 246.12 1025.75 246.15C1026.12 246.45 1026.67 246.68 1027.37 246.47C1027.48 246.44 1027.56 246.4 1027.65 246.37C1028.32 246.43 1029.05 246.48 1029.8 246.51C1029.84 246.56 1030.82 247.8 1031.97 248.22C1032.02 248.24 1032.08 248.22 1032.11 248.16C1032.21 247.97 1032.42 247.47 1032.43 246.47C1033.37 246.39 1034.27 246.24 1035.04 245.98C1035.04 245.98 1036.67 247.39 1038.29 247.82C1038.37 247.84 1038.45 247.78 1038.46 247.68C1038.52 247.27 1038.6 246.18 1038.04 245.03C1039.16 244.7 1040.02 244.47 1040.57 244.3C1041.13 244.54 1041.88 244.91 1042.63 245.43C1043.88 246.29 1044.95 246.17 1045.26 246.11C1045.31 246.11 1045.34 246.04 1045.32 245.99C1044.92 244.92 1043.44 243.33 1043.44 243.33C1044.29 242.89 1045.3 241.14 1045.55 240.68H1045.53Z"
            fill="#E0E3E5" />
        <path
            d="M313.221 236.76C313.221 236.76 313.221 236.66 313.181 236.66C312.641 236.55 311.961 236.77 311.351 236.91C310.891 237.02 310.041 237.38 309.571 237.58C308.651 237.36 305.961 236.74 305.301 236.64C305.111 236.61 304.671 236.57 304.071 236.52C303.401 235.77 303.061 234.5 302.931 233.94C302.901 233.81 302.771 233.75 302.681 233.84C301.591 234.84 300.821 235.93 300.461 236.49C299.321 236.55 298.151 236.69 297.131 236.97C296.931 237.02 296.741 237.08 296.551 237.15C295.781 237.42 295.211 237.65 294.791 237.86C293.571 238.48 293.711 238.89 294.161 239.39C294.771 240.06 296.311 240.68 297.161 240.79C297.261 240.8 297.421 240.83 297.621 240.86C297.771 240.88 297.951 240.91 298.141 240.93C298.421 241.16 298.841 241.34 299.371 241.17C299.451 241.15 299.521 241.12 299.581 241.1C300.091 241.15 300.651 241.19 301.221 241.21C301.251 241.25 302.001 242.19 302.871 242.51C302.911 242.52 302.951 242.51 302.981 242.46C303.061 242.32 303.211 241.93 303.231 241.17C303.951 241.11 304.631 240.99 305.221 240.79C305.221 240.79 306.471 241.87 307.691 242.19C307.751 242.21 307.811 242.16 307.821 242.09C307.871 241.78 307.931 240.95 307.501 240.07C308.361 239.82 309.011 239.64 309.431 239.51C309.861 239.69 310.431 239.98 311.001 240.37C311.951 241.02 312.771 240.94 313.011 240.89C313.051 240.89 313.071 240.84 313.051 240.8C312.741 239.98 311.621 238.77 311.621 238.77C312.271 238.43 313.041 237.1 313.231 236.75L313.221 236.76Z"
            fill="#E0E3E5" />
        <path
            d="M418.176 127.38C417.626 128.58 417.396 129.44 417.186 130.8C416.976 132.16 417.186 133.71 417.976 134.66C418.536 135.33 419.326 135.64 420.096 135.71C422.126 135.89 424.236 134.36 424.936 131.94C425.636 129.52 424.676 126.43 422.776 125.53C420.876 124.63 418.666 126.39 418.176 127.38Z"
            fill="#D9D5BC" />
        <path
            d="M420.696 133.62C420.196 135.53 419.736 137.45 419.336 139.39C420.476 138.59 421.856 138.16 423.246 138.17C422.956 136.63 422.906 135.05 423.096 133.5C422.546 133.6 422.006 133.7 421.456 133.79C421.096 133.85 420.666 133.9 420.686 133.62H420.696Z"
            fill="#D9D5BC" />
        <path
            d="M416.61 141.11C413.07 137.84 410.32 133.72 408.68 129.19C409.78 128.95 410.88 128.72 411.97 128.48C413.27 132.61 415.02 136.73 418.09 139.77C417.54 140.15 417.02 140.58 416.6 141.11H416.61Z"
            fill="#D9D5BC" />
        <path
            d="M423.117 128.26C424.287 128.31 425.447 128.36 426.617 128.41C425.877 129.44 424.957 130.33 423.917 131.04C423.677 130.25 423.447 129.46 423.117 128.26Z"
            fill="#D9D5BC" />
        <path
            d="M416.343 147.07C414.283 152.85 415.733 159.23 417.203 165.18C417.253 165.37 417.303 165.58 417.463 165.7C417.643 165.84 417.883 165.82 418.113 165.8C418.913 165.72 419.713 165.63 420.513 165.55C419.873 160.72 419.633 155.84 419.793 150.96C419.833 149.61 419.933 148.19 420.663 147.05C420.563 153.22 421.573 159.4 423.643 165.21C424.733 164.89 425.863 164.68 426.993 164.61C425.473 157.97 424.413 151.22 423.833 144.43C421.533 143.75 417.523 143.78 416.353 147.07H416.343Z"
            fill="#CDD2D5" />
        <path
            d="M418.776 137.619C417.016 138.439 416.216 139.979 415.496 141.319C413.406 145.199 415.306 152.089 415.306 152.089C415.306 152.089 420.346 152.239 424.566 152.299C424.666 147.579 424.766 142.859 424.856 138.139C424.856 137.769 424.856 137.379 424.576 137.049C423.896 136.279 421.916 136.219 420.706 136.719C419.496 137.219 419.376 137.339 418.776 137.619Z"
            fill="#7F8D7E" />
        <path
            d="M424.761 140.379C428.701 137.599 431.951 133.859 434.171 129.589C433.111 129.209 432.051 128.839 431.001 128.459C429.181 132.379 426.911 136.239 423.461 138.859C423.961 139.309 424.421 139.799 424.761 140.379Z"
            fill="#D9D5BC" />
        <path
            d="M423.761 126.26C422.811 127.43 421.761 128.68 420.291 128.99L420.171 130.69C419.781 130.31 419.151 130.18 418.671 130.44C418.191 130.7 417.981 131.38 418.281 131.83C418.581 132.28 419.371 132.31 419.641 131.84C419.311 132.91 418.701 133.9 417.891 134.68C417.831 134.74 417.751 134.8 417.681 134.77C417.641 134.76 417.611 134.72 417.581 134.69C416.141 133.02 415.681 130.56 416.441 128.49C417.201 126.42 419.131 124.83 421.311 124.49C422.001 124.38 422.761 124.41 423.331 124.83C423.891 125.25 424.111 126.16 423.771 126.25L423.761 126.26Z"
            fill="#657064" />
        <path
            d="M888.311 103.729C888.491 103.399 888.311 102.979 887.961 102.859C886.661 102.409 885.341 101.999 883.971 101.869C882.421 101.729 880.781 101.989 879.521 102.899C878.521 103.629 877.841 104.709 877.201 105.779C876.371 107.159 875.581 108.569 874.831 109.989C874.561 110.499 875.091 111.079 875.621 110.849C875.621 110.849 875.641 110.849 875.641 110.839C877.541 109.979 879.031 108.459 880.621 107.109C882.211 105.759 884.071 104.529 886.151 104.469C886.681 104.459 887.231 104.509 887.711 104.299C887.961 104.189 888.171 103.969 888.311 103.719V103.729Z"
            fill="#856E5B" />
        <path
            d="M888.292 108.409C886.052 107.179 883.122 108.119 881.302 109.909C879.482 111.699 878.512 114.159 877.592 116.549C877.432 116.949 877.282 117.379 877.342 117.799C877.402 118.219 877.782 118.639 878.212 118.579C878.482 118.539 878.692 118.339 878.872 118.139C879.892 116.989 880.532 115.549 881.582 114.429C883.192 112.719 885.592 111.919 887.182 110.189C887.732 109.589 888.162 108.599 888.302 108.419L888.292 108.409Z"
            fill="#856E5B" />
        <path
            d="M890.394 113.45C885.544 114.06 881.294 117.98 880.304 122.76C880.194 123.28 880.304 124.03 880.824 124.04C881.024 124.04 881.194 123.92 881.354 123.8C883.834 121.88 884.734 118.31 887.434 116.73C888.464 116.12 889.844 115.7 890.134 114.54C890.254 114.05 889.924 113.37 890.394 113.45Z"
            fill="#856E5B" />
        <path
            d="M917.229 103.75C922.389 102.37 928.269 104.27 931.199 108.28C931.519 108.71 931.709 109.45 931.179 109.67C930.979 109.75 930.759 109.71 930.549 109.67C927.269 108.89 924.919 105.98 921.539 105.6C920.249 105.46 918.689 105.61 917.919 104.66C917.599 104.26 917.669 103.5 917.219 103.76L917.229 103.75Z"
            fill="#856E5B" />
        <path
            d="M921.793 106.21C916.943 106.82 912.693 110.74 911.703 115.52C911.593 116.04 911.703 116.79 912.223 116.8C912.423 116.8 912.593 116.68 912.753 116.56C915.233 114.64 916.133 111.07 918.833 109.49C919.863 108.88 921.243 108.46 921.533 107.3C921.653 106.81 921.323 106.13 921.793 106.21Z"
            fill="#856E5B" />
        <path
            d="M890.65 119.739C887.35 121.109 884.98 124.519 884.93 128.109C884.93 128.729 885.35 129.299 885.96 129.409C887.01 129.589 887.43 128.279 887.62 127.289C888.16 124.419 889.6 121.719 891.69 119.679C891.28 119.359 890.62 119.419 890.65 119.739Z"
            fill="#856E5B" />
        <path
            d="M884.712 103.139C884.332 106.209 885.732 111.949 887.082 117.369C887.342 118.429 887.712 119.239 888.382 120.099C889.872 121.989 892.532 122.079 894.932 121.589C902.952 119.959 910.832 117.659 918.462 114.719C919.462 114.329 920.492 113.909 921.222 113.139C922.172 112.129 922.432 110.689 922.572 109.319C922.922 105.899 922.702 102.439 921.922 99.0986C921.572 97.5886 921.082 96.0586 920.052 94.8986C917.542 92.0586 913.002 92.4286 909.232 93.1986C903.242 94.4286 895.502 96.8586 889.682 98.7286C884.222 100.489 884.752 102.789 884.702 103.159L884.712 103.139Z"
            fill="#9F856E" />
        <path
            d="M893.311 99.5886C892.481 97.4386 891.961 95.7986 891.341 93.5786C891.181 93.0186 891.041 92.3886 891.301 91.8786C891.351 91.7886 891.421 91.6986 891.521 91.6886C891.611 91.6786 891.691 91.7386 891.761 91.7986C892.221 92.1986 892.411 92.8186 892.581 93.4086C893.221 95.7086 893.541 96.8786 894.141 99.4386C894.171 99.5686 893.651 99.6186 893.321 99.5986L893.311 99.5886Z"
            fill="#DDE2E2" />
        <path
            d="M901.337 97.3696C900.857 94.6996 900.597 92.6796 900.337 89.9696C900.267 89.2896 900.227 88.5296 900.567 87.9796C900.627 87.8796 900.707 87.7896 900.817 87.7996C900.907 87.7996 900.977 87.8896 901.037 87.9696C901.427 88.5296 901.517 89.2896 901.587 90.0096C901.857 92.8096 901.987 94.2396 902.177 97.3496C902.177 97.5096 901.657 97.4596 901.337 97.3796V97.3696Z"
            fill="#DDE2E2" />
        <path
            d="M888.044 103.31C884.644 102.15 882.414 98.6501 882.714 95.0801C882.744 94.6901 884.074 93.4201 884.254 94.0701C884.554 95.1201 884.854 96.1801 885.154 97.2301C884.654 97.5101 884.164 97.7901 883.664 98.0701C884.304 96.8201 884.954 95.5701 885.594 94.3201C885.804 93.9101 886.174 93.5201 886.614 93.3601C886.954 93.2401 887.204 93.4301 887.014 93.7901C886.374 95.0401 885.724 96.2901 885.084 97.5401C884.904 97.9001 884.604 98.2201 884.254 98.4101C884.074 98.5101 883.684 98.6801 883.604 98.3801C883.304 97.3301 883.004 96.2701 882.704 95.2201C883.214 94.8801 883.734 94.5501 884.244 94.2101C883.974 97.4901 886.184 100.77 889.284 101.83C889.864 102.03 888.604 103.49 888.044 103.3V103.31Z"
            fill="#C1B0A1" />
        <path
            d="M917.45 95.7299C917.14 95.5999 916.95 95.1899 917.05 94.8899C917.43 93.8099 917.85 92.7399 918.47 91.8499C919.18 90.8499 920.21 90.0899 921.48 90.0399C922.49 89.9999 923.56 90.3999 924.61 90.8099C925.96 91.3499 927.31 91.9299 928.65 92.5399C929.13 92.7599 929.24 93.4899 928.81 93.6299C928.81 93.6299 928.8 93.6299 928.79 93.6299C927.23 94.0999 925.43 93.8399 923.71 93.7699C921.98 93.6999 920.19 93.8699 919.07 95.0299C918.79 95.3199 918.54 95.6899 918.14 95.7999C917.94 95.8599 917.68 95.8199 917.44 95.7199L917.45 95.7299Z"
            fill="#856E5B" />
        <path
            d="M919.219 99.4705C919.799 97.3205 922.049 96.5505 924.149 97.0405C926.249 97.5305 928.249 99.0005 930.179 100.43C930.509 100.67 930.849 100.93 931.059 101.31C931.269 101.69 931.289 102.21 931.009 102.39C930.829 102.5 930.589 102.44 930.369 102.38C929.109 101.99 927.889 101.16 926.629 100.81C924.699 100.27 922.839 100.88 920.909 100.32C920.239 100.13 919.409 99.5505 919.229 99.4805L919.219 99.4705Z"
            fill="#856E5B" />
        <path
            d="M919.002 111.169C919.992 111.279 920.962 111.549 921.862 111.969C921.382 114.199 920.892 116.429 920.412 118.659C920.312 119.129 920.262 119.739 920.682 119.979C920.852 120.069 921.052 120.079 921.242 120.049C922.342 119.879 923.082 118.829 923.522 117.799C924.212 116.199 924.542 114.439 924.462 112.699C924.422 111.939 924.282 111.109 923.692 110.609C923.332 110.299 922.842 110.169 922.372 110.089C921.322 109.899 920.022 110.019 918.992 111.169H919.002Z"
            fill="#856E5B" />
        <path
            d="M897.124 105.23C897.124 105.23 897.064 105.23 897.024 105.23C896.064 105.2 895.234 104.77 894.554 103.93C894.374 103.7 894.404 103.37 894.634 103.19C894.864 103.01 895.194 103.04 895.374 103.27C895.854 103.86 896.404 104.16 897.054 104.18C897.074 104.18 897.094 104.18 897.124 104.18C898.694 104.18 900.484 102.59 901.054 101.96C901.254 101.75 901.584 101.73 901.794 101.92C902.004 102.12 902.024 102.45 901.834 102.66C901.734 102.77 899.474 105.22 897.124 105.22V105.23Z"
            fill="#2F3941" />
        <path
            d="M900.078 87.8702C899.128 88.2502 898.698 89.4402 899.128 90.5102C899.558 91.5902 900.688 92.1502 901.638 91.7602C902.588 91.3802 903.018 90.1902 902.578 89.1202C902.148 88.0402 901.018 87.4802 900.068 87.8702H900.078Z"
            fill="#2F3941" />
        <path
            d="M891.109 90.3702C890.159 90.7502 889.729 91.9402 890.159 93.0102C890.589 94.0802 891.719 94.6502 892.669 94.2602C893.619 93.8802 894.049 92.6902 893.609 91.6202C893.179 90.5402 892.049 89.9802 891.099 90.3702H891.109Z"
            fill="#2F3941" />
        <path
            d="M914.362 80.67C911.312 78.92 908.572 76.65 906.382 74.07C905.662 73.22 905.002 72.33 904.552 71.39C904.362 70.99 904.242 70.49 904.582 70.29C905.032 70.02 905.732 70.55 906.152 71.01C908.822 73.9 912.242 76.34 915.612 78.28C916.122 78.57 915.652 80.02 914.362 80.67Z"
            fill="#E5E9E9" />
        <path
            d="M918.539 76.4895C917.209 71.5395 914.909 66.8795 911.789 62.8295C912.979 61.7895 914.789 61.7095 916.219 62.2995C917.649 62.8995 918.749 64.0695 919.629 65.3295C921.379 67.8195 922.439 71.0095 921.599 73.9895C921.439 74.5595 921.199 75.1295 920.779 75.5495C920.359 75.9695 919.719 76.2195 918.529 76.4995L918.539 76.4895Z"
            fill="#E5E9E9" />
        <path
            d="M913.451 77.7302C914.611 76.6902 915.931 75.7902 917.321 75.0402C918.711 74.2902 920.291 73.8002 921.271 74.0502C922.051 74.2502 922.331 74.8702 922.541 75.4802C923.581 78.4502 923.701 82.0502 921.491 86.1302C919.291 90.2102 917.541 91.9302 912.051 93.8602C909.451 94.7702 910.361 93.7802 909.911 93.1602C909.711 92.8902 910.211 89.9302 911.251 85.5802C911.921 82.7902 910.641 80.2502 913.441 77.7202L913.451 77.7302Z"
            fill="#E5AE95" />
        <path
            d="M915.152 82.1488L915.402 80.9487C915.412 80.8787 915.622 80.9288 915.642 80.9388C915.792 80.9788 915.942 81.0588 916.072 81.1388C916.202 81.2188 916.342 81.3188 916.432 81.4388C916.482 81.5088 916.542 81.5688 916.522 81.6588L916.272 82.8588C916.262 82.9288 916.052 82.8788 916.032 82.8688C915.882 82.8288 915.732 82.7488 915.602 82.6688C915.472 82.5888 915.332 82.4888 915.242 82.3688C915.192 82.2988 915.132 82.2388 915.152 82.1488Z"
            fill="#F6E4DC" />
        <path
            d="M917.199 87.1488C917.279 86.7488 917.359 86.3487 917.449 85.9487C917.459 85.8787 917.669 85.9288 917.689 85.9388C917.839 85.9788 917.989 86.0588 918.119 86.1388C918.249 86.2188 918.389 86.3188 918.479 86.4388C918.529 86.5088 918.589 86.5688 918.569 86.6588C918.489 87.0588 918.409 87.4588 918.319 87.8588C918.309 87.9288 918.099 87.8788 918.079 87.8688C917.929 87.8288 917.779 87.7488 917.649 87.6688C917.519 87.5888 917.379 87.4888 917.289 87.3688C917.239 87.2988 917.179 87.2388 917.199 87.1488Z"
            fill="#F6E4DC" />
        <path
            d="M918.602 82.2003C918.632 81.6703 918.662 81.1503 918.682 80.6203C918.682 80.5403 918.732 80.5303 918.812 80.5403C918.932 80.5503 919.082 80.6203 919.192 80.6803C919.342 80.7603 919.492 80.8503 919.612 80.9703L919.712 81.0603C919.712 81.0603 919.792 81.1603 919.812 81.2203C919.782 81.7503 919.752 82.2703 919.732 82.8003C919.732 82.8803 919.682 82.8903 919.602 82.8803C919.482 82.8703 919.332 82.8003 919.222 82.7403C919.072 82.6603 918.922 82.5703 918.802 82.4503L918.702 82.3603C918.702 82.3603 918.622 82.2603 918.602 82.2003Z"
            fill="#F6E4DC" />
    </g>
    <defs>
        <clipPath id="clip0_5814_7966">
            <rect width="1209.79" height="248.23" fill="white" />
        </clipPath>
    </defs>
</svg>