<svg width="80" height="80" viewBox="0 0 80 80" fill="none" xmlns="http://www.w3.org/2000/svg">
    <rect width="80" height="80" fill="white" />
    <path
        d="M58.3999 30.4184C47.9205 22.0257 37.4411 13.6445 26.973 5.25187C25.5213 4.08371 24.0583 2.9269 22.6066 1.75874C21.9488 1.22569 20.0548 0.386431 19.6465 1.70203C17.7865 7.6449 15.9265 13.5764 14.0665 19.5193C11.0837 29.0347 8.10096 38.5501 5.11818 48.0655C4.4377 50.243 3.75722 52.4093 3.07674 54.5868C2.55503 56.254 4.80062 58.9759 6.56988 58.8171C20.1568 57.5582 33.7324 56.3107 47.3194 55.0518C49.2701 54.8703 51.2208 54.6889 53.1829 54.5074L50.7898 53.2258C54.4531 57.1726 58.1164 61.1194 61.791 65.0662C62.4147 65.7467 64.7511 67.2778 65.3408 65.656C68.8566 56.0839 72.3611 46.5231 75.8769 36.951C76.376 35.5787 76.8863 34.2064 77.3853 32.8341C77.9978 31.1555 75.6047 28.5017 73.8922 28.6037C68.1308 28.9667 62.3694 29.3182 56.608 29.6812C53.6365 29.8626 56.8121 34.7394 58.9443 34.6033C64.7057 34.2404 70.4671 33.8888 76.2285 33.5259L72.7354 29.2956C69.2196 38.8677 65.7151 48.4284 62.1993 58.0005C61.7002 59.3728 61.1899 60.7452 60.6909 62.1175L64.2407 62.7072C61.0765 59.3048 57.9122 55.9024 54.748 52.4886C53.6479 51.3091 52.4117 49.5966 50.6651 49.5966C49.5536 49.5966 48.3968 49.8007 47.2854 49.9142C36.2616 50.9349 25.2378 51.9556 14.214 52.965C10.8909 53.2712 7.56791 53.5774 4.24489 53.8836L7.73804 58.114C9.59802 52.1711 11.458 46.2396 13.318 40.2967C16.3008 30.7813 19.2835 21.2659 22.2663 11.7505C22.9468 9.57293 23.6273 7.40673 24.3078 5.22919L21.3477 5.17248C31.8271 13.5651 42.3065 21.9464 52.7746 30.339C54.2263 31.5071 55.6893 32.6639 57.141 33.8321C57.9236 34.4559 59.534 35.1023 60.1011 33.8888C60.6682 32.6753 59.2278 31.0648 58.4112 30.407L58.3999 30.4184Z"
        fill="#87929D" />
    <path
        d="M51.3334 38.9133C50.653 40.9661 49.9725 43.0302 49.292 45.083C49.1899 45.3778 49.0992 45.6727 48.9971 45.9676C48.9064 46.2284 49.1332 46.4553 49.3374 46.5573C49.6549 46.7161 50.1426 46.7048 50.4715 46.6594C51.1406 46.5573 52.2067 46.2511 52.4563 45.5139C53.1367 43.4612 53.8172 41.397 54.4977 39.3442C54.5998 39.0494 54.6905 38.7545 54.7926 38.4596C54.8833 38.1988 54.6565 37.9719 54.4523 37.8699C54.1348 37.7111 53.6471 37.7224 53.3182 37.7678C52.649 37.8699 51.583 38.1761 51.3334 38.9133Z"
        fill="#87929D" />
    <path
        d="M40.2064 53.1901C38.3464 59.4278 36.4751 65.6769 34.6151 71.9147C34.3429 72.8106 34.082 73.7066 33.8098 74.6139C33.6851 75.0335 34.1501 75.2377 34.4676 75.3057C38.4938 76.0769 42.5087 76.8595 46.5348 77.6307C47.3401 77.7895 49.0866 77.4606 49.3362 76.4852C50.9239 70.2815 52.5117 64.0778 54.1109 57.8741C54.3377 56.9668 54.5759 56.0708 54.8027 55.1635C55.1089 53.9613 51.6385 54.4716 51.3436 55.6171C49.7558 61.8209 48.168 68.0246 46.5689 74.2283C46.342 75.1356 46.1039 76.0316 45.877 76.9389L48.6784 75.7934C44.6522 75.0222 40.6373 74.2396 36.6111 73.4684L37.2689 74.1603C39.1289 67.9225 41.0003 61.6734 42.8602 55.4357C43.1324 54.5397 43.3933 53.6437 43.6655 52.7364C44.0171 51.5796 40.5466 52.0446 40.2064 53.1901Z"
        fill="#87929D" />
</svg>