<svg width="108" height="82" viewBox="0 0 108 82" fill="none" xmlns="http://www.w3.org/2000/svg">
    <path
        d="M8.27129 59.6884C6.96397 60.1029 5.68488 60.6147 4.44853 61.2229C2.45327 62.2041 0.37334 63.7175 0.04268 66.0031C-0.212977 67.7727 0.709646 69.5525 2.01455 70.7063C4.09932 72.5478 6.98332 72.9606 9.28666 74.5179C12.2973 76.554 15.5821 78.0876 19.0057 79.1847C28.5254 82.2342 38.6445 82.246 48.4973 81.7723C53.3669 81.538 58.2405 81.2436 63.1045 80.9129C67.9684 80.5821 72.4315 81.5177 77.1567 81.1506C85.8805 80.473 94.4664 77.6443 101.943 72.8701C105.535 70.5752 109.828 67.925 107.177 62.7303C104.821 58.1151 98.3158 58.2005 94.1075 58.6801C90.7549 59.0625 87.1943 59.4634 83.9087 58.4213C80.5811 57.3656 77.6801 57.5297 74.1356 57.5923C66.5095 57.7268 58.8728 57.9958 51.2458 57.9958C46.2682 58.0838 41.2906 58.1709 36.3129 58.2589C32.1958 58.3316 28.1746 57.4883 24.1228 57.6025C21.034 57.6896 17.9693 58.2673 14.8797 58.4568C12.6408 58.5939 10.4182 59.0092 8.27129 59.6893V59.6884Z"
        fill="#AFC7D7" />
    <path
        d="M56.6291 53.7318C75.1208 48.6418 89.4003 41.1236 90.2324 36.2726C85.0302 20.0349 69.1272 9.7841 52.306 10.8725L49.6695 4.36167C48.3368 1.07241 44.6729 -0.699517 41.1875 0.259626C37.7014 1.21877 35.5239 4.59912 36.1456 8.0838L37.3778 14.9885C22.4686 22.6469 14.3988 39.4879 18.6381 55.9786C21.9402 59.6914 38.1373 58.8218 56.6291 53.7318ZM41.8738 2.64113C44.0417 2.044 46.2949 3.27719 46.9054 5.39555C47.5159 7.51392 46.2542 9.71403 44.0855 10.3104C41.9176 10.9075 39.6644 9.67433 39.0539 7.55596C38.4434 5.43759 39.7051 3.23748 41.8738 2.64113Z"
        fill="#F1EFEF" />
    <path
        d="M90.2325 36.2734C89.4012 41.1236 75.1218 48.6426 56.6292 53.7326C38.1375 58.8226 21.9396 59.6922 18.6383 55.9795C18.5745 56.3493 18.5897 56.7035 18.6869 57.0406C18.7841 57.3777 18.9595 57.6844 19.2098 57.967C22.5054 61.6829 38.7073 60.8141 57.2039 55.7233C75.7012 50.6325 89.9831 43.1104 90.808 38.2602C90.8709 37.892 90.8558 37.5385 90.7586 37.2038C90.6613 36.869 90.4844 36.5576 90.2325 36.2742V36.2734Z"
        fill="#E1E1E1" />
    <path
        d="M26.4497 68.5207C31.2629 68.688 35.857 70.3891 40.4741 71.7266C45.0913 73.0641 50.0488 74.0497 54.6859 72.7784C58.9141 71.6192 62.4234 68.7021 66.5631 67.2696C71.2663 65.6425 76.4486 66.0434 81.3487 66.9613C82.6861 67.212 84.0187 67.5 85.3497 67.7927C87.0028 65.4509 88.3736 62.9254 89.4281 60.2706C92.1292 53.4718 92.7652 45.8274 90.807 38.2594C89.9828 43.1096 75.7002 50.6309 57.2029 55.7225C38.7063 60.8133 22.5052 61.6821 19.2087 57.9662C20.4513 61.8658 22.3123 65.4206 24.654 68.558C25.3131 68.5136 25.9229 68.5028 26.4489 68.5214L26.4497 68.5207Z"
        fill="#F1EFEF" />
</svg>