<svg width="72" height="116" viewBox="0 0 72 116" fill="none" xmlns="http://www.w3.org/2000/svg">
    <g clip-path="url(#clip0_16_811)">
        <path
            d="M39.7025 83.9194C40.0634 83.0124 40.0838 81.3911 40.0437 80.5544C39.9772 79.1564 39.495 77.7998 39.0816 76.2924C38.3401 73.5908 37.5103 70.9132 36.5782 68.2696C36.5037 68.0578 36.3941 67.8157 36.1727 67.7707C35.7293 67.6801 35.6395 68.3754 35.7688 68.8061C35.4671 68.0223 35.1654 67.2378 34.863 66.454C34.7921 66.2698 34.7044 66.0668 34.5218 65.9878C34.2486 65.8696 33.9309 66.1255 33.8717 66.4148C33.8125 66.7049 33.9287 66.9985 34.0419 67.2726C35.1712 70.0025 36.2122 72.7686 37.1618 75.5652C37.5936 76.837 38.3518 78.3473 38.487 79.6836C38.6426 81.22 38.1685 84.2747 37.7156 85.719C37.1502 87.5245 36.4766 89.8991 35.7439 92.3621C36.2757 92.2838 36.8141 92.2156 37.3583 92.1562C38.159 88.9978 38.9019 85.9293 39.7018 83.9187L39.7025 83.9194Z"
            fill="#2F3941" />
        <path
            d="M52.5745 90.8155C52.7396 89.8541 53.205 86.6688 52.9931 85.8582C52.6388 84.5038 50.2574 78.8997 49.5408 77.5091C48.6956 75.8697 47.8555 74.2259 46.9314 72.6279C46.4639 71.8194 45.9752 71.0226 45.4536 70.2475C45.0146 69.5942 44.6866 68.7908 44.0789 68.271C43.4192 67.7061 42.1847 68.2275 42.4433 69.1613C42.6222 69.8081 43.2629 70.473 43.6325 71.0269C44.0862 71.7071 44.534 72.3915 44.9759 73.0796C45.8452 74.434 46.6904 75.8044 47.5115 77.1886C48.1974 78.3451 50.7052 84.4661 51.1143 85.7458C51.5847 87.2177 51.1661 90.3138 50.779 91.7762C50.7015 92.0691 50.6219 92.3628 50.5408 92.6565C51.0829 92.7594 51.6176 92.8725 52.1435 92.9951C52.3028 92.2772 52.4467 91.5514 52.5738 90.8148L52.5745 90.8155Z"
            fill="#2F3941" />
        <path
            d="M31.9942 102.69C29.7699 103.345 27.5857 104.104 25.4548 105.015C23.9873 105.643 22.2312 106.182 21.2501 107.498C20.8892 107.983 21.4795 108.498 21.9587 108.21C24.587 106.633 27.4082 105.505 30.2849 104.497C29.8911 104.927 29.5062 105.363 29.1256 105.803C27.3534 107.578 25.7229 109.509 24.6308 111.697C24.3774 112.204 25.1765 112.688 25.4987 112.207C26.8537 110.185 28.3323 108.27 29.916 106.437C30.4843 105.871 31.0672 105.331 31.6458 104.798C31.5362 105.036 31.4318 105.281 31.3331 105.531C30.2783 107.613 29.3396 109.748 28.5353 111.95C28.3133 112.557 29.1994 112.947 29.4689 112.349C30.4354 110.208 31.4018 108.067 32.3683 105.926C32.8906 104.769 33.2434 104.017 34.4611 103.508C35.7139 102.983 37.2312 102.878 38.5775 102.808C39.2313 102.774 39.1049 101.772 38.454 101.806C37.153 101.874 35.2844 101.991 33.8453 102.59C33.8417 102.585 33.8373 102.58 33.8344 102.575C35.2523 100.248 36.3509 96.1308 37.3583 92.156C36.8141 92.2147 36.2757 92.2836 35.7439 92.3619C34.6072 96.183 33.3281 100.219 32.0885 102.681C32.0563 102.685 32.0264 102.68 31.9928 102.69H31.9942Z"
            fill="#FCD891" />
        <path
            d="M46.7745 105.083C44.7335 106.177 42.7531 107.365 40.856 108.692C39.5491 109.606 37.9428 110.492 37.2546 111.98C37.0019 112.527 37.6864 112.911 38.0954 112.532C40.341 110.452 42.8692 108.773 45.4757 107.199C45.1791 107.7 44.8927 108.206 44.6115 108.715C43.2447 110.813 42.0482 113.035 41.4331 115.399C41.2899 115.947 42.1724 116.257 42.3878 115.722C43.2951 113.466 44.3463 111.291 45.5166 109.174C45.9556 108.504 46.4143 107.856 46.8702 107.217C46.8125 107.473 46.7606 107.734 46.716 107.997C46.1148 110.251 45.6378 112.531 45.3069 114.849C45.2156 115.49 46.1631 115.69 46.3033 115.05C46.8059 112.758 47.3085 110.466 47.8118 108.173C48.0835 106.935 48.2727 106.127 49.359 105.379C50.4766 104.61 51.9398 104.199 53.2423 103.855C53.8749 103.688 53.544 102.733 52.9136 102.9C51.6549 103.232 49.8499 103.728 48.5518 104.594C49.9288 100.693 51.2649 96.9663 52.1444 92.9944C51.6184 92.8718 51.0837 92.7587 50.5417 92.6558C49.4101 96.7582 47.9455 100.969 46.8658 105.054C46.8351 105.065 46.8052 105.066 46.7745 105.083Z"
            fill="#FCD891" />
        <path
            d="M21.573 4.95728C21.573 4.95728 5.36544 8.53911 0.409014 10.0371C-0.142511 10.2039 -0.137398 10.7092 0.430199 10.7216C2.7225 10.7709 17.1768 9.21342 19.9104 8.76026C20.9995 8.57971 21.7446 8.57899 22.0069 7.75966C22.2867 6.88596 21.5737 4.958 21.5737 4.958L21.573 4.95728Z"
            fill="#2F3941" />
        <path
            d="M71.5426 76.7114C71.306 76.9536 70.9889 77.1247 70.612 77.2211C70.097 77.3654 69.4651 77.3908 68.8128 77.3379C68.3175 77.3067 67.8069 77.2364 67.3138 77.1443C67.2948 77.1566 67.297 77.1769 67.2795 77.1994C66.6001 78.0854 64.7023 78.316 63.0375 78.3559C62.1901 78.3776 61.4077 78.3508 60.8642 78.3457C60.8124 78.3421 60.7722 78.3465 60.7305 78.3414C57.6522 78.2986 55.2613 77.522 53.1962 76.1459C43.6208 76.1712 33.2814 71.6635 26.2832 65.2648C22.5876 61.8809 18.5553 56.7684 17.0461 52.0917C15.1738 46.2999 14.8349 40.4029 15.4251 34.2304C15.851 29.7959 24.5519 17.7126 23.7842 13.1491C23.1107 13.007 22.4861 12.6763 21.9689 12.221C21.337 11.8302 20.7702 11.3088 20.3092 10.6432C17.4778 6.53355 19.9863 0.218932 25.1444 0.00866259C27.2548 -0.0747202 29.6231 0.440078 31.0263 2.09976C33.8811 5.47422 32.6495 10.6875 32.0425 14.5644C31.5465 17.7286 24.6308 28.0978 25.1239 31.2758C25.4307 33.2516 25.8186 35.4732 27.1854 37.0321C28.7771 38.8469 31.3215 38.4895 33.5071 38.9956C38.3949 40.1267 42.894 42.742 46.198 46.5029C47.0556 47.4767 47.8767 48.4845 48.6525 49.5395C48.8709 49.8179 49.0813 50.108 49.2807 50.3987C50.2801 51.772 51.2151 53.204 52.0931 54.673C52.324 55.0515 52.5453 55.4314 52.7667 55.8113C53.4285 56.941 54.0523 58.0953 54.6572 59.2619C54.8332 59.6063 55.0086 59.9515 55.1744 60.2973C55.2803 60.488 55.3767 60.6896 55.4717 60.8817C56.3125 61.5524 57.1533 62.2231 58.0043 62.8916C58.3908 63.2005 58.7787 63.5195 59.1746 63.827C59.8795 64.3918 60.5947 64.9559 61.2996 65.5207C64.2654 67.8852 67.5198 70.1024 70.2884 72.6945C71.2161 73.5683 72.7786 75.4418 71.5419 76.7107L71.5426 76.7114Z"
            fill="#F2F2F2" />
        <path
            d="M24.1969 4.14952C24.0632 4.05671 23.9106 4.00523 23.7411 4.01755C22.7133 4.09079 22.9456 5.76714 23.2129 6.36242C23.3897 6.75686 23.8485 7.07807 24.2517 6.91565C24.5651 6.78949 24.7127 6.43203 24.7674 6.10067C24.8303 5.71639 24.8098 5.31905 24.709 4.94274C24.6272 4.63821 24.4468 4.32208 24.1969 4.14879V4.14952Z"
            fill="#2F3941" />
        <path
            d="M59.1754 63.8271C57.306 63.8713 55.2848 63.5987 53.506 63.4587C51.2101 63.2804 48.9331 62.9265 46.7022 62.3639C42.2936 61.2531 38.083 59.3447 34.4736 56.5807C29.6092 52.8611 24.3877 45.8287 27.5814 39.5837C27.878 38.9986 28.8079 39.3937 28.5113 39.9789C25.2679 46.3217 31.4267 53.3919 36.4511 56.7468C37.7696 57.6335 39.2116 58.4449 40.7333 59.1547C42.1241 56.6467 44.2908 54.7768 46.1565 52.6284C47.0265 51.6278 47.8614 50.5909 48.654 49.5389C48.8725 49.8173 49.0828 50.1073 49.2823 50.3981C48.7293 51.1463 48.1332 51.8801 47.5247 52.5943C47.2478 52.9228 46.9381 53.2353 46.6496 53.555C48.4619 53.9647 50.2721 54.3548 52.094 54.6724C52.3248 55.0508 52.5461 55.4308 52.7675 55.8107C50.6154 55.4721 48.4787 55.0102 46.3398 54.5281C46.1711 54.4875 46.0666 54.3889 46.0001 54.2641C45.2843 55.0226 44.5676 55.7701 43.8832 56.5351C47.25 58.3325 50.92 59.0148 54.6587 59.2613C54.8348 59.6057 55.0101 59.9508 55.1759 60.2967C51.0194 60.0698 46.9198 59.3889 43.2133 57.3283C42.6442 58.028 42.1102 58.7639 41.6756 59.5593C41.5069 59.8544 50.2129 62.1616 51.0172 62.287C53.1897 62.6227 55.6734 62.9106 58.0066 62.891C58.393 63.1999 58.7809 63.5189 59.1769 63.8263L59.1754 63.8271Z"
            fill="#DDDDDD" />
        <path
            d="M70.612 77.2211C70.097 77.3654 69.4652 77.3908 68.8128 77.3379C65.153 75.1598 61.7102 72.6597 58.5019 69.8269C58.0088 69.3991 58.637 68.6001 59.1206 69.03C62.6818 72.1558 66.5132 74.8929 70.6113 77.2211H70.612Z"
            fill="#DDDDDD" />
        <path
            d="M63.0382 78.3551C62.1908 78.3769 61.4085 78.35 60.865 78.345C58.336 76.9441 55.9319 75.3149 53.7426 73.3442C53.259 72.9149 53.888 72.1166 54.3716 72.5459C56.989 74.9118 59.9329 76.7708 63.0382 78.3558V78.3551Z"
            fill="#DDDDDD" />
    </g>
    <defs>
        <clipPath id="clip0_16_811">
            <rect width="72" height="116" fill="white" />
        </clipPath>
    </defs>
</svg>