<svg width="23" height="13" viewBox="0 0 23 13" fill="none" xmlns="http://www.w3.org/2000/svg">
    <path
        d="M21.9673 2.00986L12.0398 12.4012C11.9254 12.5217 11.7868 12.6165 11.6331 12.6795C11.4793 12.7426 11.3139 12.7723 11.1479 12.7668C10.982 12.7712 10.8169 12.741 10.6634 12.678C10.5098 12.615 10.3711 12.5208 10.2559 12.4012L0.328293 2.00986C0.22053 1.89683 0.136128 1.76366 0.0798244 1.618C0.0235204 1.47233 -0.00338677 1.31704 0.000340378 1.16091C0.00406752 1.00478 0.0384098 0.850887 0.101601 0.70807C0.164791 0.565254 0.255545 0.436271 0.368579 0.328508C0.481613 0.220745 0.614667 0.136343 0.760336 0.0800395C0.906005 0.0237356 1.06129 -0.00338913 1.21742 0.000338081C1.37355 0.00406529 1.52755 0.0385161 1.67037 0.101707C1.81319 0.164898 1.94217 0.255651 2.04993 0.368685L11.1122 9.85905L20.1744 0.368685C20.2822 0.255651 20.4112 0.164898 20.554 0.101707C20.6968 0.0385161 20.8508 0.00406529 21.0069 0.000338081C21.163 -0.00338913 21.3183 0.0237356 21.464 0.0800395C21.6097 0.136343 21.7427 0.220745 21.8558 0.328508C21.9688 0.436271 22.0595 0.565254 22.1227 0.70807C22.1859 0.850887 22.2205 1.00478 22.2242 1.16091C22.2279 1.31704 22.2008 1.47233 22.1445 1.618C22.0882 1.76366 22.0038 1.89683 21.896 2.00986H21.9673Z"
        fill="white" />
</svg>