<svg width="30" height="30" viewBox="0 0 30 30" fill="none" xmlns="http://www.w3.org/2000/svg">
    <g clip-path="url(#clip0_5707_7793)">
        <path
            d="M14.9948 0.00520456C17.961 0.0052043 20.8606 0.884774 23.3269 2.53271C25.7932 4.18065 27.7155 6.52292 28.8506 9.26333C29.9857 12.0038 30.2827 15.0192 29.704 17.9284C29.1253 20.8376 27.6969 23.5099 25.5995 25.6074C23.5021 27.7048 20.8299 29.1331 17.9207 29.7118C15.0114 30.2905 11.9959 29.9935 9.25553 28.8584C6.51511 27.7233 4.17287 25.801 2.52493 23.3347C0.876994 20.8684 -0.00259314 17.9688 -0.0025934 15.0026C0.00291277 11.0267 1.58477 7.21528 4.39613 4.40391C7.20749 1.59255 11.0189 0.0107114 14.9948 0.00520456ZM14.9948 28.4388C17.6522 28.4388 20.25 27.6508 22.4596 26.1744C24.6692 24.698 26.3913 22.5996 27.4083 20.1444C28.4252 17.6893 28.6913 14.9877 28.1728 12.3813C27.6544 9.77493 26.3747 7.38083 24.4956 5.50173C22.6165 3.62264 20.2224 2.34296 17.6161 1.82452C15.0097 1.30608 12.3081 1.57216 9.85296 2.58912C7.39781 3.60608 5.29936 5.32823 3.82296 7.53781C2.34657 9.74739 1.55855 12.3452 1.55855 15.0026C1.56268 18.5648 2.97956 21.98 5.49845 24.4989C8.01734 27.0178 11.4325 28.4347 14.9948 28.4388Z"
            fill="white" />
        <path
            d="M17.9441 7.52921C18.1589 7.52771 18.3688 7.59268 18.5452 7.71521C18.7216 7.83774 18.8557 8.01183 18.9293 8.21361C19.0028 8.41539 19.0121 8.63497 18.9559 8.84225C18.8998 9.04953 18.7808 9.23435 18.6154 9.37137L11.9077 15.0019L18.6154 20.6324C18.8272 20.8105 18.9597 21.0654 18.9836 21.3411C19.0076 21.6167 18.9209 21.8906 18.7429 22.1025C18.5649 22.3144 18.31 22.4468 18.0343 22.4707C17.7586 22.4946 17.4847 22.408 17.2728 22.23L9.61804 15.7981C9.502 15.7004 9.4087 15.5785 9.3447 15.441C9.28071 15.3034 9.24758 15.1536 9.24758 15.0019C9.24758 14.8502 9.28071 14.7003 9.3447 14.5628C9.4087 14.4253 9.502 14.3034 9.61804 14.2057L17.2728 7.77379C17.4607 7.61561 17.6985 7.52897 17.9441 7.52921Z"
            fill="white" />
        <path opacity="0.2"
            d="M15.0012 28.4395C17.6587 28.4395 20.2565 27.6514 22.466 26.175C24.6756 24.6986 26.3978 22.6002 27.4147 20.145C28.4317 17.6899 28.6978 14.9883 28.1793 12.3819C27.6609 9.77554 26.3812 7.38144 24.5021 5.50234C22.623 3.62325 20.2289 2.34357 17.6225 1.82513C15.0161 1.30669 12.3146 1.57277 9.85942 2.58973C7.40427 3.60669 5.30582 5.32884 3.82942 7.53842C2.35303 9.748 1.56502 12.3458 1.56502 15.0032C1.56915 18.5655 2.98602 21.9806 5.50491 24.4995C8.0238 27.0184 11.439 28.4353 15.0012 28.4395ZM9.62051 14.181L17.2753 7.74909C17.4632 7.59091 17.701 7.50428 17.9466 7.50451C18.1614 7.50301 18.3713 7.56798 18.5477 7.69051C18.724 7.81304 18.8582 7.98713 18.9317 8.18891C19.0053 8.39069 19.0146 8.61026 18.9584 8.81754C18.9022 9.02481 18.7832 9.20964 18.6179 9.34665L11.9102 14.9772L18.6179 20.6077C18.8297 20.7858 18.9622 21.0407 18.9861 21.3163C19.01 21.592 18.9234 21.8659 18.7454 22.0778C18.5673 22.2896 18.3125 22.4221 18.0368 22.446C17.7611 22.4699 17.4872 22.3833 17.2753 22.2053L9.62051 15.7734C9.50447 15.6757 9.41117 15.5538 9.34717 15.4163C9.28318 15.2787 9.25005 15.1289 9.25005 14.9772C9.25005 14.8255 9.28318 14.6756 9.34717 14.5381C9.41117 14.4006 9.50447 14.2787 9.62051 14.181Z"
            fill="#2F3941" />
    </g>
    <defs>
        <clipPath id="clip0_5707_7793">
            <rect width="30" height="30" fill="white" transform="translate(30 30) rotate(180)" />
        </clipPath>
    </defs>
</svg>