<svg width="180" height="140" viewBox="0 0 180 140" fill="none" xmlns="http://www.w3.org/2000/svg">
    <path d="M180 0H0V140H180V0Z" fill="#F8F9F9" />
    <g clip-path="url(#clip0_5890_7464)">
        <path
            d="M68.2297 38.6974C68.2613 43.4547 67.9235 48.2436 67.4695 52.9691C66.5722 62.1777 65.0625 71.5339 61.7791 80.2257C60.0371 84.8352 57.7779 89.3393 54.3573 92.9468C53.6711 93.6746 54.0722 94.5817 54.8957 94.9404C58.7808 96.6492 62.8982 97.9044 66.9839 99.0225C76.3377 101.565 85.9977 103.031 95.6999 103.01C98.5399 103.01 101.38 102.852 104.209 102.546C105.582 102.398 106.944 102.219 108.295 101.987C109.646 101.755 111.663 101.776 112.454 100.52C113.014 99.6343 113.246 98.4213 113.563 97.4403C115.727 90.7844 117.448 83.9808 118.81 77.1245C121.196 65.1207 122.421 52.832 121.872 40.5856C121.829 39.6257 120.932 39.0983 119.992 39.2249C115.843 39.7945 111.663 40.1531 107.482 40.4273C99.3845 40.9653 91.1708 41.1657 83.0944 40.1847C79.1143 39.6995 75.0814 38.9295 71.4497 37.1574C69.7499 36.3241 66.8044 38.7818 69.127 39.921C76.2533 43.4019 84.9314 43.7184 92.7122 43.8555C100.134 43.9821 107.566 43.5496 114.946 42.7901C116.519 42.6319 118.082 42.4631 119.644 42.2416L117.765 40.8809C118.599 59.4246 115.579 78.3375 109.995 96.0057C109.583 97.2926 109.171 98.5795 108.707 99.8453L110.269 98.6744C93.8629 101.839 76.3483 99.2018 60.755 93.548C59.5726 93.1155 58.3796 92.6725 57.2289 92.1662L57.7673 94.1598C64.239 87.3457 67.1845 77.6308 69.1482 68.6754C70.9429 60.4584 71.8614 52.0303 72.2309 43.634C72.3048 41.883 72.3682 40.1425 72.3576 38.3915C72.347 36.2503 68.2402 36.841 68.2508 38.6869L68.2297 38.6974Z"
            fill="#87929D" />
        <path
            d="M78.1736 53.4121C88.6571 55.0681 99.774 55.0681 110.236 53.4121C111.683 53.18 109.719 51.0282 108.653 51.1969C98.3699 52.8319 87.4747 52.8214 77.1707 51.1969C76.5161 51.0915 76.2416 51.6294 76.4528 52.1779C76.7062 52.8425 77.498 53.3171 78.1631 53.4226L78.1736 53.4121Z"
            fill="#87929D" />
        <path
            d="M77.3846 62.1581C87.868 63.8142 98.985 63.8142 109.447 62.1581C110.894 61.9261 108.93 59.7743 107.864 59.943C97.5808 61.578 86.6856 61.5674 76.3816 59.943C75.7271 59.8375 75.4526 60.3755 75.6637 60.924C75.9171 61.5885 76.7089 62.0632 77.374 62.1687L77.3846 62.1581Z"
            fill="#87929D" />
        <path
            d="M75.3678 71.0703C77.1203 71.6294 78.9679 71.9564 80.7837 72.2412C85.2706 72.9374 89.8314 73.0639 94.3499 72.758C95.0573 72.7053 94.8672 71.8825 94.6033 71.4923C94.2127 70.9121 93.4737 70.4902 92.7663 70.5429C88.4378 70.8383 84.0671 70.6906 79.7808 70.0155C78.1549 69.7624 76.5924 69.4881 75.0088 68.9818C74.481 68.813 73.8159 68.9501 73.8792 69.6147C73.9425 70.2792 74.766 70.8805 75.3572 71.0703H75.3678Z"
            fill="#87929D" />
        <path
            d="M88.9349 94.1176C89.4311 93.1894 89.9906 92.0502 90.9725 91.5439C91.2364 91.4068 91.7643 91.2169 92.0599 91.3857C91.9649 91.3329 92.1232 91.5861 92.1549 91.6916C92.2288 91.9236 92.2394 92.1662 92.3027 92.3983C92.5772 93.3793 93.4535 94.1071 94.4775 94.202C95.5755 94.297 96.2406 93.5269 96.7685 92.6725C97.0324 92.2401 97.2647 91.7759 97.5919 91.3857C97.7397 91.2063 98.4682 90.4469 98.7955 90.6578C98.5421 90.4996 98.7533 91.3224 98.7638 91.4068C98.806 91.6494 98.8694 91.8709 98.9644 92.1029C99.1861 92.5882 99.5345 92.989 99.9885 93.2632C101.065 93.8961 101.92 93.4848 102.733 92.6936C103.768 91.6916 104.782 90.6789 105.806 89.6663C106.471 89.0123 104.708 87.8098 104.169 88.3372C103.145 89.3499 102.121 90.3625 101.097 91.3646C100.949 91.5122 100.801 91.6494 100.654 91.797C100.316 91.9447 100.358 92.0818 100.759 92.2084C100.759 92.2084 100.611 91.449 100.611 91.4173C100.506 90.9215 100.326 90.4785 99.9779 90.0988C99.3128 89.3815 98.2359 89.0123 97.2858 89.2338C96.23 89.4764 95.6177 90.3836 95.1004 91.2591C94.942 91.5228 94.8048 91.797 94.6253 92.0397C94.4986 92.2084 94.0024 92.5565 93.9813 92.6725C94.203 92.9046 94.2769 92.9152 94.203 92.7253C94.1819 92.6093 94.1502 92.4932 94.1291 92.3666C94.0763 92.1029 94.0024 91.8603 93.8863 91.6177C93.4535 90.7422 92.5561 90.1621 91.6165 89.9406C89.3466 89.4132 88.027 91.2696 87.0768 93.0312C86.6862 93.7696 88.5548 94.8455 88.9455 94.1176H88.9349Z"
            fill="#87929D" />
    </g>
    <defs>
        <clipPath id="clip0_5890_7464">
            <rect width="68" height="66" fill="white" transform="translate(54 37)" />
        </clipPath>
    </defs>
</svg>