<svg width="91" height="88" viewBox="0 0 91 88" fill="none" xmlns="http://www.w3.org/2000/svg">
    <g clip-path="url(#clip0_16_808)">
        <path
            d="M79.121 61.1015C76.4286 66.0066 71.2937 68.8086 66.3859 68.072C58.9151 66.9511 53.6611 62.3349 47.9801 57.5237C41.0164 51.557 33.379 45.2822 23.4752 46.9213C22.3851 47.1015 21.5804 46.0525 21.9529 44.9054C26.3748 31.2938 32.4 18.1979 39.8689 5.96482C40.1651 5.47931 40.6558 5.16559 41.1695 5.12498C52.5593 4.22117 58.8063 11.3578 65.8397 18.872C72.4031 25.9764 79.6846 33.4253 89.5488 32.937C90.5956 32.8852 91.2812 33.9529 90.8875 35.0439C87.6517 44.0138 83.7134 52.7344 79.121 61.102V61.1015Z"
            fill="#E29B97" />
        <path
            d="M2.36587 87.9581C2.2458 87.9342 2.12526 87.9104 2.00518 87.8866C0.642491 87.6187 -0.433914 86.0968 0.174448 84.6692C15.0501 49.7439 25 31.1108 39.4227 1.63496C40.1248 0.200356 41.8402 -0.378994 43.0762 0.254043C43.1854 0.309597 43.2942 0.365618 43.4035 0.421172C44.6395 1.05421 44.9714 2.66294 44.2411 4.06113C29.2007 32.8648 18.3669 55.8819 5.46465 85.7494C4.85723 87.1556 3.7295 88.227 2.36587 87.9581Z"
            fill="#BF8E62" />
    </g>
    <defs>
        <clipPath id="clip0_16_808">
            <rect width="91" height="88" fill="white" />
        </clipPath>
    </defs>
</svg>