<svg width="404" height="139" viewBox="0 0 404 139" fill="none" xmlns="http://www.w3.org/2000/svg">
    <path
        d="M16.6953 116.184C16.6953 110.809 37.9907 101.202 46.6598 100.071L361.006 93.0039C382.113 96.773 409.242 116.386 361.006 124.099C249.628 141.909 164.588 136.66 118.462 133.993C69.5575 131.166 16.6953 124.665 16.6953 116.184Z"
        fill="#AFC7D7" />
    <path
        d="M82.4022 88.7177C90.4313 85.5061 96.5424 84.3144 105.023 83.1836L106.922 82.8642C109.484 82.4982 111.96 82.3868 114.609 82.3868C124.737 82.3868 134.796 82.1297 144.882 81.4573C148.972 81.1846 153.023 80.3175 157.142 80.1007C162.549 79.8161 168.117 79.6523 173.497 79.1209C183.145 78.168 192.874 77.6151 202.564 76.7342C219.588 75.1866 236.542 78.4994 253.538 78.7692C262.592 78.9129 271.56 81.9364 280.595 82.412C291.841 83.0038 300.554 82.8642 311.827 82.8642C320.428 82.8642 321.376 84.1543 329.919 83.1836C334.159 84.7101 359.374 89.1247 364.124 94.5713C370.06 101.38 310.112 106.505 303.281 107.158C293.74 108.231 284.063 108.615 274.465 108.615C260.632 109.781 152.182 108.196 99.6866 107.258C88.6096 107.507 63.5724 107.04 52.0387 103.188C50.8508 103.006 48.0016 101.894 46.9503 101.832C45.1704 100.635 44.3327 100.422 45.1704 99.3446C49.6852 93.5399 59.4774 95.0543 65.9971 94.5713C71.5415 94.1606 77.3122 90.7537 82.4022 88.7177Z"
        fill="#8BA18C" />
    <path
        d="M245.325 9.02896C245.174 4.21488 246.143 1.75769 246.647 1.13086C247.1 3.38746 252.625 12.978 255.331 17.4912C257.03 20.5 261.75 21.0642 267.037 21.0642C271.266 21.0642 275.47 28.7115 277.043 32.5352C278.553 35.4186 282.896 41.0727 288.182 40.6214C293.468 40.17 297.055 44.445 298.188 46.639L329.906 88.198H265.715L246.647 70.3333C245.828 69.393 242.644 67.2868 236.452 66.3842C230.259 65.4816 226.445 60.9934 225.312 58.8622C226.219 58.8622 228.711 55.9788 229.844 54.5371C231.052 52.2805 230.347 47.2031 229.844 44.9465C229.542 40.5837 235.004 35.7321 237.773 33.8516C239.409 33.2247 242.493 30.8051 241.738 26.1415C240.983 21.4779 242.43 18.4315 243.248 17.4912C244.003 16.6763 245.476 13.843 245.325 9.02896Z"
        fill="#F8F9F9" fill-opacity="0.3" />
    <path
        d="M176.793 45.1631C174.829 42.3066 165.27 28.1871 160.736 21.4844V30.3169C161.341 33.4741 162.499 39.6506 163.003 42.3442C163.003 47.7565 158.469 50.9888 156.202 51.9284C153.784 52.8305 150.157 55.4364 148.646 56.6266C144.867 59.1824 143.671 65.0832 143.545 67.7142C144.905 73.4272 144.112 77.1105 143.545 78.2381C142.941 81.0945 137.878 86.0683 135.422 88.1982H163.003C163.154 85.6424 170.37 79.4909 173.96 76.7347C178.04 71.172 186.995 68.4033 190.962 67.7142C195.042 66.6618 198.203 61.7632 199.274 59.4455C199.878 57.6414 192.473 54.6847 188.695 53.4318C183.708 52.0788 178.683 47.3555 176.793 45.1631Z"
        fill="#F8F9F9" fill-opacity="0.3" />
    <path
        d="M226.119 18.5093C240.56 4.30711 245.925 1.00838 246.803 1.13429C244.847 1.88972 245.11 6.35937 245.487 8.49976C245.938 11.3704 243.92 15.9911 242.854 17.9427C240.786 20.5867 241.35 26.6302 241.726 27.1967C242.102 27.7633 241.538 32.4848 238.529 33.4291C236.122 34.1845 233.39 37.2692 232.324 38.7171C229.165 42.3432 229.88 47.1528 230.632 49.1043C231.083 54.6945 226.808 57.9807 224.614 58.9249L217.469 50.9929C214.009 47.669 210.762 47.9712 209.572 48.5377L214.461 58.9249L218.597 68.179C218.898 74.6757 214.21 77.0554 211.828 77.4331C207.616 77.1309 204.808 79.0698 203.93 80.0771C201.373 82.3434 201.611 86.4353 202.05 88.198H162.562L168.768 81.2102C177.643 71.5407 184.5 68.8715 186.819 68.7456C194.19 67.9902 198.039 61.8837 199.042 58.9249C198.741 56.9608 194.654 55.5885 192.648 55.1478C184.074 52.126 179.047 47.7194 177.605 45.8937L190.768 30.9739C196.785 21.9087 205.811 21.9087 209.572 23.0419C213.332 24.4016 222.17 20.5867 226.119 18.5093Z"
        fill="#C2C8CC" />
    <path
        d="M138.815 43.9089C145.901 41.3459 155.838 28.6439 159.921 22.6133C159.921 27.1362 161.429 34.8002 162.182 38.0668C166.102 45.9066 156.906 52.2639 151.818 54.4625C148.237 56.3471 141.642 62.1516 143.903 70.2929C146.164 78.4342 139.066 85.6207 135.235 88.1963H88.5C96.3393 85.9348 112.747 65.8956 119.97 56.1586C127.207 46.2081 135.549 43.8461 138.815 43.9089Z"
        fill="#C2C8CC" />
    <path
        d="M330.313 87.4327C326.6 82.6707 321.959 76.7998 317.475 71.1244C312.995 65.4603 308.364 59.6007 304.659 54.8499C303.602 53.4968 302.568 51.937 301.469 50.2908C299.464 47.2764 297.388 44.1606 295.007 42.0445C293.145 40.3908 290.711 40.0675 288.356 39.7518C286.314 39.4812 284.38 39.2256 282.857 38.1582C280.183 36.2864 277.892 33.2796 276.045 29.2166C274.33 25.4393 272.261 21.6507 267.559 20.4141C266.122 20.0382 264.659 20.027 263.24 20.0157C262.127 20.0082 261.074 20.0007 260.043 19.8278C257.214 19.358 255.631 16.6142 254.1 13.9607C253.633 13.1488 253.189 12.3858 252.712 11.6755C251.967 10.5705 247.95 3.00828 248.002 1.03128C248.01 0.670463 247.822 0.328436 247.509 0.140508C247.197 -0.0436604 246.806 -0.0474189 246.494 0.132991C241.931 2.76021 238.049 6.4248 234.295 9.96911C232.918 11.2696 231.493 12.6151 230.06 13.8855C223.014 20.1247 216.567 22.9436 210.334 22.5076C209.514 22.4512 208.675 22.346 207.862 22.2408C206.365 22.0528 204.819 21.8574 203.258 21.9363C197.74 22.2182 193.888 26.4052 190.491 30.1036L190.232 30.3855C185.545 35.4784 181.4 40.1502 177.574 44.6605C175.844 42.4993 174.396 40.0751 172.91 37.5719C171.748 35.6174 170.544 33.5953 169.182 31.6935C167.982 30.0172 166.835 28.2807 165.721 26.6044C164.266 24.4057 162.761 22.1318 161.106 19.9368C160.944 19.7225 160.677 19.6098 160.41 19.6436C160.143 19.6774 159.914 19.8503 159.808 20.0984C157.179 26.3752 152.891 30.9568 148.35 35.8053C147.884 36.3015 147.418 36.8014 146.944 37.3088C144.446 39.9924 142.731 41.6912 139.074 42.7662C138.239 43.0105 137.378 43.2247 136.543 43.4314C133.827 44.1042 131.021 44.8033 128.613 46.6788C122.832 51.1816 117.758 57.5147 112.386 64.2199C105.013 73.4209 97.3849 82.9375 87.8041 87.3275C87.5032 87.4666 87.3377 87.7785 87.3715 88.0942C87.3715 88.1055 87.3715 88.113 87.3715 88.1205C87.3715 88.3461 87.507 88.5415 87.6988 88.6317C87.8229 88.7144 87.9696 88.7633 88.1201 88.7633C88.2254 88.7633 88.3307 88.7407 88.4323 88.6956C88.4398 88.6956 88.4474 88.6881 88.4549 88.6843H134.967C135.046 88.7106 135.125 88.7294 135.208 88.7294C135.29 88.7294 135.369 88.7106 135.448 88.6843H162.43C162.528 88.7031 162.626 88.7031 162.72 88.6843H265.294C265.479 88.6843 265.603 88.6843 265.776 88.6843C265.949 88.6843 266.043 88.6843 266.257 88.6843H329.828C330.076 88.6843 330.283 88.5265 330.358 88.3047C330.524 88.0454 330.52 87.6996 330.321 87.4402L330.313 87.4327ZM251.459 12.5136C251.911 13.1789 252.339 13.9231 252.791 14.7124C254.419 17.5313 256.263 20.7261 259.791 21.3124C260.942 21.5041 262.101 21.5116 263.225 21.5191C264.613 21.5304 265.922 21.5417 267.175 21.8687C271.245 22.9361 273.043 26.2474 274.676 29.8368C276.632 34.1478 279.095 37.3614 281.996 39.391C283.824 40.6689 286.028 40.9621 288.161 41.244C290.388 41.5409 292.49 41.819 294.01 43.1683C296.248 45.1566 298.268 48.1898 300.22 51.1252C301.334 52.7977 302.387 54.3763 303.474 55.7745C307.183 60.5291 311.814 66.3924 316.294 72.0565C320.529 77.4124 324.9 82.9413 328.496 87.5492H266.28C263.598 85.0724 261.07 82.7007 258.625 80.4042C256.176 78.1078 253.645 75.7324 250.959 73.248C250.496 72.8233 250.033 72.3722 249.563 71.9212C247.382 69.8164 245.128 67.6365 242.262 66.7194C240.893 66.2796 239.49 66.0241 238.136 65.7797C236.059 65.4001 234.096 65.0431 232.234 64.0771C229.868 62.8518 227.923 61.0289 226.136 59.0557C230.402 56.3571 232.098 52.2076 230.913 47.2689C229.928 43.1646 233.012 38.2822 236.417 35.7753C236.875 35.437 237.376 35.11 237.861 34.7981C238.895 34.1253 239.964 33.4299 240.848 32.4828C243.052 30.1112 242.789 27.6681 242.533 25.3002C242.371 23.8081 242.206 22.2633 242.676 20.7185C243.093 19.3467 243.695 18.0613 244.335 16.7007C244.775 15.761 245.23 14.7913 245.614 13.7953C246.261 12.119 246.193 10.2134 246.125 8.37548C246.05 6.32332 245.982 4.36135 246.78 2.62491C247.769 6.02263 251 11.8371 251.455 12.5099L251.459 12.5136ZM194.96 54.9777C194.704 54.895 194.441 54.8123 194.182 54.7259C194.682 54.7259 195.212 54.7334 195.765 54.7334C197.684 54.7334 199.843 54.7071 201.678 54.6169C201.524 54.8612 201.37 55.1055 201.219 55.346C200.87 55.9023 200.524 56.451 200.178 56.981L199.655 57.7816C199.632 57.8191 199.606 57.8567 199.583 57.8943C198.549 56.1203 196.664 55.5189 194.964 54.9814L194.96 54.9777ZM188.389 34.6252C189.51 34.7605 201.532 36.1662 215.848 36.1662C221.95 36.1662 228.468 35.9106 234.735 35.1889C232.911 36.7262 231.278 38.8009 230.27 41.0598H182.649C184.473 38.9738 186.38 36.8352 188.385 34.6214L188.389 34.6252ZM223.808 56.3533C223.127 55.5415 222.435 54.7221 221.724 53.9215C223.477 53.914 226.61 53.8576 229.108 53.6058C228.374 55.3009 227.043 56.7517 225.132 57.9094C224.688 57.3907 224.248 56.872 223.812 56.3533H223.808ZM229.537 48.0281C229.864 49.6142 229.856 51.0838 229.514 52.4256C226.441 52.7902 221.871 52.7977 220.686 52.794C219.072 51.0989 217.3 49.5541 215.182 48.4303C215.175 48.4303 215.171 48.4228 215.164 48.4228L229.54 48.0281H229.537ZM202.434 53.4442C198.647 53.6885 192.748 53.5908 191.176 53.557C188.283 52.3918 185.387 51.1177 182.765 49.4413C182.701 49.4 182.641 49.3549 182.577 49.3136L206.632 48.6558C204.989 49.8435 203.634 51.6251 202.431 53.4442H202.434ZM209.36 48.9302C209.777 50.3472 210.274 51.7942 210.849 53.2563L203.668 54.2974C205.331 51.7679 207.061 49.5917 209.36 48.9302ZM200.915 58.5972L201.434 57.8004C201.784 57.2629 202.137 56.7066 202.491 56.1428C202.615 55.9474 202.739 55.7482 202.863 55.5527L211.285 54.335C211.835 55.6655 212.448 57.0035 213.114 58.3453L199.824 60.2584C200.193 59.7059 200.557 59.1497 200.915 58.6009V58.5972ZM198.959 61.5213L213.652 59.4053C214.336 60.7245 215.07 62.04 215.856 63.3442C216.172 63.8704 216.476 64.4342 216.751 65.028C210.887 64.6785 199.783 65.4979 195.235 65.8699C196.657 64.5732 197.86 63.0811 198.959 61.5213ZM193.561 67.1403C195.566 66.9637 210.702 65.6783 217.233 66.1894C217.703 67.4936 217.97 68.8918 217.842 70.29L182.671 70.7636C183.141 70.5418 183.634 70.3313 184.161 70.1321C185.237 69.7225 186.448 69.4368 187.727 69.1361C189.747 68.6588 191.819 68.1702 193.561 67.1403ZM180.535 71.9212L217.643 71.4213C217.387 72.4061 216.902 73.3795 216.115 74.3004C215.175 75.4054 214.125 75.9654 213.008 76.2811C192 76.3864 179.147 76.4803 174.633 76.5705C175.035 76.2323 175.43 75.894 175.81 75.567C177.379 74.2214 178.816 72.9886 180.535 71.9212ZM173.248 77.7169C175.411 77.6304 193.813 77.5139 206.294 77.4425C205.391 77.7845 204.522 78.3107 203.721 79.1602C202.585 80.3667 201.949 81.4191 201.596 82.4639C194.407 81.7536 172.364 83.5201 166.737 83.9899C168.765 81.7009 170.901 79.6488 173.252 77.7131L173.248 77.7169ZM165.68 85.2152C167.711 85.0385 193.429 82.8548 201.321 83.5727C201.148 84.6213 201.182 85.7113 201.227 86.9817C201.235 87.1621 201.238 87.3576 201.246 87.5455H163.818C164.431 86.7411 165.052 85.9594 165.68 85.2114V85.2152ZM202.732 86.9328C202.63 84.0237 202.581 82.5654 204.816 80.1938C206.313 78.6039 208.122 78.431 210.217 78.2356C212.523 78.0176 215.134 77.7733 217.259 75.2776C220.106 71.9362 220.065 67.426 217.142 62.5699C214.362 57.9507 212.203 53.1811 210.868 48.7272C211.94 48.7347 213.129 49.0505 214.475 49.7608C217.767 51.5048 220.14 54.3275 222.657 57.3193C223.191 57.9545 223.725 58.5897 224.274 59.2211C224.278 59.2324 224.282 59.2399 224.285 59.2512C224.342 59.3564 224.425 59.4353 224.519 59.4992C226.535 61.7882 228.732 63.9531 231.542 65.4114C233.607 66.4826 235.773 66.8772 237.869 67.2569C239.174 67.4936 240.528 67.7417 241.803 68.1514C244.335 68.9632 246.46 71.0154 248.518 73.0037C248.995 73.466 249.465 73.9208 249.936 74.353C252.618 76.8299 255.149 79.2053 257.594 81.498C259.674 83.4524 261.822 85.4632 264.068 87.5455H202.75C202.743 87.335 202.739 87.1245 202.732 86.9291V86.9328ZM221.528 21.5905C223.3 20.7298 225.094 19.6474 226.919 18.3319C226.919 18.3319 226.919 18.3319 226.922 18.3319C226.93 18.3319 226.934 18.3319 226.941 18.3319C227.389 18.3206 237.082 18.0988 242.428 17.2494C241.984 18.2304 241.559 19.2339 241.239 20.2826C241.07 20.8426 240.972 21.3876 240.915 21.925L221.528 21.5943V21.5905ZM244.624 8.43186C244.639 8.8453 244.654 9.25498 244.662 9.65339C242.661 10.4389 238.399 10.6569 235.717 10.6907C238.677 7.89815 241.728 5.05669 245.11 2.77149C244.485 4.63573 244.557 6.61648 244.624 8.43186ZM231.053 15.0093C232.091 14.0922 233.118 13.1376 234.126 12.1904C234.133 12.1904 234.145 12.1904 234.152 12.1904C234.212 12.1904 234.502 12.1979 234.957 12.1979C236.887 12.1979 241.777 12.1077 244.624 11.247C244.572 11.9574 244.451 12.6339 244.214 13.2503C243.913 14.0321 243.556 14.8139 243.199 15.5806C239.606 16.306 232.474 16.6405 228.961 16.7646C229.653 16.2083 230.349 15.6295 231.053 15.0056V15.0093ZM203.33 23.436C204.759 23.3646 206.173 23.5412 207.671 23.7291C208.502 23.8344 209.363 23.9434 210.225 24.0035C213.106 24.2027 216.018 23.763 218.989 22.673L240.863 23.0451C240.867 23.8682 240.953 24.6725 241.036 25.4618C241.119 26.2098 241.194 26.9277 241.19 27.6155L194.956 27.6418C197.345 25.4167 200.053 23.6013 203.326 23.436H203.33ZM191.334 31.4003L191.594 31.1184C192.305 30.3442 193.038 29.5474 193.802 28.7731L241.107 28.7468C240.953 29.6789 240.569 30.5772 239.746 31.4605C238.99 32.2723 238.042 32.8887 237.041 33.5389C236.898 33.6329 236.755 33.7269 236.608 33.8208C216.977 36.4217 194.054 34.1215 189.322 33.5953C189.984 32.8699 190.649 32.1408 191.334 31.3966V31.4003ZM181.671 42.1874H229.83C229.3 43.7396 229.085 45.3445 229.318 46.9043L212.32 47.3704C211.127 47.1298 210.044 47.1825 209.055 47.4606L181.084 48.2273C180.162 47.4869 179.331 46.6788 178.556 45.8181C179.572 44.6229 180.606 43.4126 181.671 42.1874ZM167.956 32.5655C169.28 34.4147 170.465 36.4067 171.612 38.3348C174.324 42.8977 177.13 47.6147 181.953 50.7042C185.379 52.8992 189.182 54.3951 192.861 55.8459C193.407 56.0601 193.963 56.2368 194.501 56.4097C196.446 57.0299 198 57.526 198.598 59.3789C197.198 61.4725 195.697 63.5209 193.813 65.1258C192.147 66.5427 189.72 67.1178 187.377 67.6703C186.105 67.971 184.789 68.2829 183.619 68.7264C179.756 70.196 177.36 72.2482 174.824 74.4244C174.136 75.0145 173.429 75.6234 172.673 76.2323C168.648 79.4909 165.244 83.0691 161.964 87.4929C161.952 87.5117 161.941 87.5304 161.93 87.5492H137.092C141.155 84.3432 145.255 78.4085 145.225 74.1726C145.217 72.9924 145.044 71.831 144.875 70.7072C144.739 69.7939 144.608 68.9294 144.559 68.0499C144.333 64.0095 146.09 59.83 149.257 56.872C150.769 55.4588 152.597 54.5605 154.535 53.6133C156.682 52.5609 158.905 51.471 160.632 49.6142C163.89 46.1075 164.725 41.8641 163.051 37.3426C161.655 33.5765 161.016 28.3183 161.23 22.6767C162.351 24.2591 163.419 25.864 164.458 27.4351C165.575 29.1264 166.733 30.8741 167.948 32.5692L167.956 32.5655ZM111.57 67.6327C111.6 67.6365 111.626 67.6477 111.656 67.6477C111.686 67.6477 111.716 67.6477 111.75 67.6402C112.687 67.5575 134.019 66.975 143.062 66.7344C143.043 67.2005 143.039 67.6703 143.065 68.1401C143.118 69.0873 143.261 70.0269 143.396 70.9365C143.528 71.8085 143.649 72.6429 143.701 73.4735C133.199 71.7897 111.412 73.9283 105.811 74.5259C107.778 72.2971 109.689 69.9705 111.57 67.6365V67.6327ZM121.184 55.9399C121.184 55.9399 121.199 55.9399 121.207 55.9399H121.214L148.414 55.6129C148.354 55.6655 148.294 55.7144 148.234 55.7707C146.993 56.9321 145.958 58.2401 145.146 59.6458L117.648 60.0931C118.826 58.6648 120.003 57.2742 121.184 55.9399ZM160.369 33.0954L152.943 33.0278C155.486 30.175 157.826 27.2283 159.695 23.7893C159.643 26.4954 159.767 29.8105 160.369 33.0954ZM151.939 34.1478L160.598 34.2268C160.865 35.4445 161.2 36.6435 161.621 37.7936H148.546C148.847 37.4704 149.148 37.1471 149.449 36.8277C150.291 35.9294 151.123 35.0386 151.939 34.1478ZM147.489 38.9212H161.982C162.404 40.4321 162.502 41.8829 162.276 43.2661L141.873 43.3187C144.119 42.2738 145.665 40.8531 147.489 38.9212ZM136.904 44.886C137.457 44.7469 138.025 44.6041 138.589 44.4538L162.02 44.3936C161.58 45.8783 160.752 47.2802 159.534 48.5919C159.368 48.7723 159.195 48.9377 159.018 49.1031L128.933 48.3476C129.136 48.186 129.336 48.0169 129.539 47.859C131.694 46.1789 134.226 45.5513 136.904 44.886ZM127.624 49.4413L157.642 50.1931C156.491 50.9786 155.208 51.61 153.876 52.2603C152.533 52.918 151.157 53.5983 149.881 54.4703L122.208 54.801C123.979 52.8616 125.773 51.0538 127.624 49.4413ZM116.716 61.2394L144.544 60.7884C143.814 62.3181 143.336 63.9418 143.141 65.6031C121.395 66.1819 114.628 66.3961 112.491 66.4864C112.849 66.0428 113.202 65.5993 113.556 65.1596C114.617 63.8366 115.666 62.5286 116.712 61.2432L116.716 61.2394ZM104.682 75.7812C105.916 75.6422 132.319 72.7143 143.709 74.6161C143.618 75.77 143.148 77.2095 142.388 78.7317L98.1936 82.2121C100.447 80.2577 102.598 78.0815 104.686 75.785L104.682 75.7812ZM96.7003 83.4562L141.749 79.9081C140.12 82.7082 137.622 85.591 134.805 87.3312C134.711 87.3876 134.636 87.4666 134.579 87.5492H90.6742C92.7732 86.3916 94.7743 85.0085 96.7003 83.4524V83.4562Z"
        fill="#F8F9F9" />
    <path
        d="M227.679 62.2369C217.003 48.6915 211.327 47.3118 209.823 48.3152C209.823 51.1748 214.334 59.5403 216.59 63.3657C218.845 66.6768 218.407 71.1418 217.905 72.9604C216.552 76.723 212.329 77.6636 210.387 77.6636C207.23 77.3626 204.561 79.2941 203.621 80.2975C201.065 82.1035 201.428 86.6939 201.929 88.7634L265.457 88.199L250.609 74.4654C246.098 68.7462 240.585 66.9402 238.392 66.752C232.829 66.451 228.932 63.6165 227.679 62.2369Z"
        fill="#F8F9F9" fill-opacity="0.3" />
    <path
        d="M227.008 78.0911V87.6324H235.488V75.0977C235.18 74.499 234.46 74.5988 234.139 74.7235L228.357 76.7815C227.432 77.0808 227.072 77.7793 227.008 78.0911Z"
        fill="#F8F9F9" />
    <path
        d="M2 117.598C15.7574 125.796 55.8233 140.947 106.028 135.972C168.784 129.753 159.173 121.555 214.014 130.601C268.855 139.647 295.428 139.082 327.088 126.078"
        stroke="#F8F9F9" stroke-width="3" stroke-linecap="round" />
    <path
        d="M242.281 126.183C256.792 129.01 281.992 130.378 308.43 121.378C348.288 107.809 386.168 118.362 401.999 124.487"
        stroke="#F8F9F9" stroke-width="3" stroke-linecap="round" />
    <path
        d="M138.25 122.8C129.774 121.148 115.056 120.349 99.6146 125.609C76.3344 133.539 54.2098 127.371 44.9638 123.791"
        stroke="#F8F9F9" stroke-width="3" stroke-linecap="round" />
    <path
        d="M73.0944 82.0571C74.2099 80.1396 76.5056 79.0156 78.6718 79.3226C78.4681 76.6919 80.2362 74.0377 82.7079 73.2678C85.1795 72.498 88.1048 73.6929 89.373 75.9929C90.7754 73.7968 93.5155 72.5783 96.0473 73.0223C98.5792 73.4662 100.764 75.549 101.37 78.0946C104.263 76.9375 107.929 79.2328 108.234 82.383C109.216 81.7218 110.604 81.7595 111.548 82.4727C112.493 83.1858 112.932 84.5319 112.599 85.6795C114.228 85.4717 115.825 87.1011 115.626 88.7635C115.247 91.8665 109.669 91.5925 107.508 91.8098C104.305 92.1357 101.083 92.2868 97.8617 92.2726C92.7379 92.249 87.5262 93.0897 82.4116 92.5229C80.0881 92.2632 77.5609 92.5702 75.3624 91.5359C71.928 89.9254 71.2846 85.1647 73.0944 82.0571Z"
        fill="#728E70" />
    <path
        d="M331.706 81.7534C330.533 79.7811 328.118 78.6249 325.839 78.9407C326.053 76.2349 324.193 73.5048 321.593 72.713C318.993 71.9212 315.916 73.1502 314.582 75.5159C313.106 73.2571 310.224 72.0038 307.561 72.4604C304.897 72.917 302.599 75.0593 301.961 77.6777C298.918 76.4875 295.062 78.8484 294.741 82.0885C293.708 81.4085 292.248 81.4473 291.254 82.1808C290.261 82.9144 289.799 84.2988 290.149 85.4793C288.435 85.2655 286.756 86.9415 286.965 88.6514C287.364 91.843 293.231 91.5613 295.505 91.7847C298.874 92.1199 302.263 92.2754 305.652 92.2608C311.042 92.2365 316.525 93.1012 321.905 92.5182C324.349 92.2511 327.007 92.5668 329.32 91.503C332.933 89.8465 333.61 84.9498 331.706 81.7534Z"
        fill="#728E70" />
    <path
        d="M311.009 87.8423C310.082 86.2536 308.174 85.3222 306.374 85.5766C306.543 83.3969 305.073 81.1977 303.019 80.5598C300.965 79.922 298.533 80.912 297.479 82.8178C296.313 80.9981 294.036 79.9885 291.932 80.3563C289.827 80.7242 288.011 82.4499 287.507 84.5591C285.103 83.6004 282.056 85.5022 281.802 88.1123C280.987 87.5645 279.832 87.5958 279.048 88.1867C278.263 88.7776 277.897 89.8929 278.174 90.8438C276.82 90.6716 275.493 92.0217 275.658 93.3991C275.974 95.9701 280.61 95.7431 282.406 95.9231C285.068 96.1932 287.746 96.3184 290.424 96.3066C294.682 96.2871 299.014 96.9836 303.265 96.514C305.196 96.2988 307.297 96.5532 309.124 95.6962C311.979 94.3618 312.514 90.4172 311.009 87.8423Z"
        fill="#E7DA7F" />
    <path
        d="M99.5112 88.9751C100.453 87.3864 102.391 86.455 104.219 86.7094C104.047 84.5297 105.54 82.3305 107.626 81.6926C109.713 81.0548 112.182 82.0448 113.253 83.9506C114.437 82.1309 116.75 81.1213 118.887 81.4891C121.024 81.857 122.869 83.5827 123.38 85.6919C125.822 84.7332 128.917 86.635 129.175 89.2452C130.003 88.6973 131.175 88.7286 131.972 89.3195C132.769 89.9104 133.141 91.0257 132.859 91.9766C134.235 91.8044 135.583 93.1545 135.415 94.5319C135.094 97.1029 130.386 96.8759 128.561 97.056C125.858 97.326 123.138 97.4512 120.419 97.4395C116.093 97.4199 111.694 98.1164 107.376 97.6469C105.415 97.4316 103.282 97.686 101.426 96.829C98.5266 95.4946 97.9835 91.55 99.5112 88.9751Z"
        fill="#E7DA7F" />
</svg>