<svg width="80" height="80" viewBox="0 0 80 80" fill="none" xmlns="http://www.w3.org/2000/svg">
    <rect width="80" height="80" fill="white" />
    <path
        d="M63.3317 74.4514H41.8171C33.708 74.4514 25.5876 74.5875 17.4899 74.4514C17.4105 74.4514 17.3198 74.4514 17.2404 74.4514C17.229 74.4514 17.2063 74.4514 17.195 74.4514C17.7167 74.4741 16.6279 74.3607 16.4465 74.3153C14.7793 73.8844 13.4637 72.4213 12.9874 70.7995C12.7379 69.9489 12.7492 69.155 12.7492 68.2931C12.7492 65.1628 12.7492 62.0326 12.7492 58.9024C12.7492 48.5137 12.7492 38.1137 12.7492 27.725V15.2495C12.7492 13.14 12.3409 10.1913 13.4524 8.3086C14.9608 5.76813 18.1817 6.35789 20.6995 6.35789H61.4603C61.8573 6.35789 62.2429 6.35789 62.6398 6.35789C62.7192 6.35789 62.7986 6.35789 62.878 6.35789C62.9234 6.35789 62.9914 6.36923 62.81 6.35789C62.4697 6.3352 63.0935 6.39191 63.0822 6.39191C63.343 6.43728 63.5698 6.48264 63.8193 6.55069C66.0763 7.24251 67.3238 9.49944 67.3465 11.7564C67.3805 15.2382 67.3465 18.72 67.3465 22.2018V47.2775C67.3465 54.6948 67.4146 62.1234 67.3465 69.5406C67.3238 72.0357 66.0196 74.372 63.3203 74.4514C62.3336 74.4854 60.8933 75.1886 60.7799 76.2887C60.6551 77.4682 62.0047 77.7858 62.9007 77.7631C67.0516 77.6383 71.0098 74.871 71.8604 70.6861C72.1326 69.3251 71.9965 67.8054 71.9965 66.4331V30.4356C71.9965 25.3206 71.9965 20.2057 71.9965 15.0907C71.9965 13.8318 71.9965 12.573 71.9965 11.3141C71.9738 8.45604 70.7489 5.83618 68.2425 4.31644C65.4752 2.62658 61.8573 3.04621 58.7157 3.04621C53.8276 3.04621 48.9508 3.04621 44.0627 3.04621C35.2731 3.04621 26.4836 3.01218 17.694 3.04621C12.7492 3.06889 8.12192 6.51666 8.0879 11.711C8.06521 14.3309 8.0879 16.9507 8.0879 19.5706C8.0879 30.2201 8.0879 40.8696 8.0879 51.5192V65.0154C8.0879 67.2497 7.73631 70.051 8.43948 72.2058C9.63032 75.8577 13.1008 77.7404 16.7867 77.7744C17.5466 77.7744 18.2951 77.7744 19.055 77.7744H31.9388C41.647 77.7744 51.3552 77.7744 61.0747 77.7744H62.9234C63.9101 77.7744 65.3504 77.0146 65.4638 75.9371C65.5886 74.7349 64.239 74.4628 63.343 74.4628L63.3317 74.4514Z"
        fill="#87929D" />
    <path
        d="M60.5939 42.8417H20.2526L21.2847 43.6696V27.3494L19.0164 28.5402H59.3577L58.3256 27.7123V44.0325C58.3256 45.5069 61.6259 44.8605 61.6259 43.6696V27.3494C61.6259 26.7823 61.1269 26.5215 60.5939 26.5215H20.2526C19.6856 26.5215 17.9844 26.8277 17.9844 27.7123V44.0325C17.9844 44.5996 18.4834 44.8605 19.0164 44.8605C30.8001 44.8605 42.5838 44.8605 54.3788 44.8605H59.3577C60.0495 44.8605 61.195 44.645 61.5239 43.9305C61.8301 43.2613 61.263 42.8417 60.6052 42.8417H60.5939Z"
        fill="#87929D" />
    <path d="M50.5938 4.69922V21.0988L55.1983 17.6397L59.9731 21.0988V4.69922H50.5938Z" fill="#87929D" />
    <path
        d="M49.8906 4.89235V21.292C49.8906 21.6435 51.1155 21.1332 51.2289 21.0538C52.76 19.897 54.3024 18.7515 55.8335 17.5947L54.5406 17.8896C56.1284 19.0464 57.7275 20.1918 59.3153 21.3487C59.5535 21.5188 60.6763 21.292 60.6763 20.9177V4.51809C60.6763 4.4387 60.4608 4.41602 60.4268 4.41602H51.0361C50.7526 4.41602 50.2536 4.46138 50.0494 4.67687C49.902 4.8243 49.7999 4.98308 50.1288 4.98308H59.5194L59.2699 4.88101V21.2806L60.6309 20.8496C59.0431 19.6928 57.444 18.5474 55.8562 17.3905C55.5386 17.1637 54.8241 17.4813 54.5633 17.6854C53.0322 18.8422 51.4898 19.9877 49.9587 21.1445L51.297 20.9064V4.51809C51.297 4.29126 49.902 4.49541 49.902 4.89235H49.8906Z"
        fill="#87929D" />
</svg>