<svg width="180" height="140" viewBox="0 0 180 140" fill="none" xmlns="http://www.w3.org/2000/svg">
    <g clip-path="url(#clip0_5889_7400)">
        <path d="M180 0H0V140H180V0Z" fill="#F8F9F9" />
        <g clip-path="url(#clip1_5889_7400)">
            <path
                d="M110.4 91.7402C105.83 96.2702 100.02 99.2502 93.5897 99.9302C87.9897 100.52 82.2897 99.3302 77.3097 96.7302C67.5197 91.6302 61.2497 81.3102 61.0097 70.3102C60.8397 62.6902 63.6697 55.3002 68.6697 49.5902C69.3197 48.8502 68.1197 48.4602 67.5797 48.4402C66.6097 48.4002 65.5397 48.8002 64.8997 49.5402C55.9897 59.7102 54.3997 74.7602 61.2397 86.4602C67.5597 97.2602 79.6297 103.11 91.9997 102.21C100.08 101.62 107.89 98.0702 113.64 92.3602C114.24 91.7702 114.1 91.1702 113.27 90.9702C112.44 90.7702 111.04 91.1102 110.4 91.7402Z"
                fill="#87929D" />
            <path
                d="M83.2998 40.8795C98.5598 37.4895 113.93 47.7195 117.95 62.5495C119.2 67.1695 119.33 71.9795 118.4 76.6695C118.11 78.1595 122.18 77.4995 122.45 76.1495C124.11 67.7395 122.41 59.0395 117.59 51.9495C113.18 45.4495 106.36 40.8395 98.7498 38.9495C93.4998 37.6495 88.0198 37.7595 82.7598 38.9195C82.1798 39.0495 80.7798 39.6395 80.9998 40.4495C81.2198 41.2595 82.7498 41.0095 83.2898 40.8895L83.2998 40.8795Z"
                fill="#87929D" />
            <path
                d="M84.3621 88.3403C77.4721 85.6803 72.5421 79.4103 71.6821 72.0503C70.8721 65.1303 73.8821 57.9703 79.6021 53.9203C85.3221 49.8703 92.4721 49.9503 98.3721 53.2203C104.432 56.5703 108.262 63.0803 108.502 69.9703C108.782 78.1503 103.732 85.9003 96.0021 88.6703C95.4921 88.8503 94.4921 89.4903 94.9821 90.1303C95.4721 90.7703 96.9021 90.3403 97.4621 90.1303C105.112 87.3903 111.082 80.6403 112.112 72.4703C113.082 64.7303 109.622 56.9403 103.162 52.5503C96.5521 48.0603 87.8021 47.6403 80.6121 51.0003C73.4221 54.3603 68.4321 61.0103 67.8421 68.8403C67.1321 78.1203 72.6921 86.7703 81.3621 90.1203C82.1921 90.4403 83.2821 90.2103 84.0221 89.7503C84.4621 89.4803 85.2221 88.6703 84.3721 88.3403H84.3621Z"
                fill="#87929D" />
            <path
                d="M88.7937 60.5406C95.4937 60.6306 100.154 67.6906 97.9437 73.9406C97.0737 76.3906 95.0337 79.0506 92.3637 79.6406C89.4037 80.2906 86.1537 78.6806 84.1837 76.5506C81.5137 73.6606 80.8637 69.3906 82.3237 65.7706C82.5737 65.1406 81.0537 65.3706 80.8137 65.4106C80.2437 65.5106 78.8637 65.7806 78.6037 66.4306C77.1037 70.1506 77.6837 74.3306 80.2737 77.4106C82.8637 80.4906 86.5837 81.5906 90.3537 81.1906C94.1237 80.7906 98.2437 78.9306 100.504 75.5706C102.574 72.4906 102.864 68.3606 101.214 65.0306C99.3337 61.2306 95.4337 59.0506 91.2537 58.9906C90.3837 58.9806 89.3137 59.2006 88.5937 59.7006C88.0537 60.0806 88.0337 60.5006 88.8137 60.5106L88.7937 60.5406Z"
                fill="#87929D" />
        </g>
    </g>
    <defs>
        <clipPath id="clip0_5889_7400">
            <rect width="180" height="140" fill="white" />
        </clipPath>
        <clipPath id="clip1_5889_7400">
            <rect width="66.07" height="64.3" fill="white" transform="translate(57 38)" />
        </clipPath>
    </defs>
</svg>